<svg width="112" height="48" viewBox="0 0 112 48" fill="none" xmlns="http://www.w3.org/2000/svg">
<path fill-rule="evenodd" clip-rule="evenodd" d="M21.4661 42.2328C19.9794 42.1307 18.8588 40.8679 18.9626 39.4115L20.8733 12.5925C20.9232 11.8923 21.2552 11.2401 21.7961 10.7796L33.6975 0.64875C34.8229 -0.309233 36.5276 -0.192786 37.5056 0.908878L47.8569 12.5695C48.3266 13.0986 48.5624 13.7888 48.5126 14.4884L46.602 41.3049C46.4981 42.7627 45.2071 43.8622 43.719 43.76L21.4661 42.2328Z" fill="#EF5443"/>
<path fill-rule="evenodd" clip-rule="evenodd" d="M68.0028 45.6302C66.5124 45.6813 65.2617 44.5388 65.2098 43.0787L64.2539 16.2124C64.2289 15.5114 64.4893 14.8294 64.9777 14.3165L75.7367 3.01828C76.7534 1.9506 78.4612 1.89234 79.5517 2.88814L91.0862 13.4211C91.6103 13.8996 91.9187 14.5625 91.9437 15.2639L92.8996 42.1314C92.9515 43.5908 91.7862 44.815 90.2964 44.8661L68.0028 45.6302Z" fill="#EF5443"/>
<path fill-rule="evenodd" clip-rule="evenodd" d="M4.96846 46.4853C3.48229 46.6132 2.17191 45.5361 2.0425 44.0801L0.0101829 21.2142C-0.0520571 20.514 0.17283 19.8182 0.635177 19.2807L9.20853 9.3128C10.1665 8.19899 11.8634 8.05354 13.0043 8.98745L23.2024 17.3357C23.7536 17.7869 24.0985 18.4347 24.1608 19.1357L26.1934 42.0047C26.3227 43.459 25.2247 44.7409 23.7402 44.8687L4.96846 46.4853Z" fill="#2CA4AB"/>
<path fill-rule="evenodd" clip-rule="evenodd" d="M45.8948 46.9575C44.238 46.9575 42.8948 45.6144 42.8948 43.9575V21.4143C42.8948 20.6068 43.2204 19.8333 43.7978 19.2689L52.9468 10.3264C54.1126 9.18696 55.9749 9.18696 57.1407 10.3264L66.2897 19.2689C66.8671 19.8333 67.1927 20.6068 67.1927 21.4143V43.9575C67.1927 45.6144 65.8495 46.9575 64.1927 46.9575H45.8948Z" fill="#2CA4AB"/>
<path fill-rule="evenodd" clip-rule="evenodd" d="M88.0517 46.3778C86.5672 46.2503 85.4695 44.9687 85.5991 43.5144L87.6376 20.646C87.7001 19.945 88.0452 19.2972 88.5965 18.8458L98.7972 10.4955C99.9383 9.56132 101.635 9.70636 102.593 10.8199L111.164 20.7853C111.626 21.3227 111.851 22.0183 111.789 22.7186L109.751 45.584C109.621 47.0399 108.31 48.1173 106.824 47.9897L88.0517 46.3778Z" fill="#2CA4AB"/>
<path fill-rule="evenodd" clip-rule="evenodd" d="M6.89732 17.947H9.94344C12.3847 17.947 14.329 18.0491 15.7764 18.2534C17.2239 18.4578 18.5039 19.0868 19.6165 20.1407C20.7291 21.1946 21.2854 22.8829 21.2854 25.2056C21.2854 27.3134 20.8155 28.9103 19.8757 29.9964C18.936 31.0825 17.7802 31.7922 16.4083 32.1256C15.0365 32.459 13.454 32.6256 11.6609 32.6256V41.949L6.89732 42.3361V17.947ZM12.5036 28.7866C13.7567 28.7866 14.745 28.5285 15.4687 28.0124C16.1925 27.4962 16.5543 26.5499 16.5543 25.1734C16.5543 23.8184 16.2195 22.9044 15.5498 22.4312C14.88 21.9581 13.8215 21.7215 12.374 21.7215H11.6935V28.7866H12.5036ZM24.4176 24.3669V42.3362L28.9543 41.949V23.9798L24.4176 24.3669ZM39.1191 42.562C37.7365 42.562 36.5537 42.1319 35.5707 41.2716C34.5877 40.4113 33.8478 39.2714 33.3509 37.8519C32.854 36.4325 32.6056 34.8947 32.6056 33.2387C32.6056 31.6041 32.8486 30.0663 33.3347 28.6254C33.8208 27.1844 34.5607 26.0122 35.5545 25.1089C36.5483 24.2056 37.7689 23.754 39.2163 23.754C40.3181 23.754 41.3065 24.0282 42.1814 24.5766C43.0564 25.1251 43.7423 25.8939 44.2392 26.8833C44.7361 27.8726 45.0061 29.0017 45.0493 30.2707L40.7394 30.4642C40.7394 30.3782 40.7016 30.0341 40.626 29.4319C40.5504 28.8297 40.3883 28.335 40.1399 27.9479C39.8914 27.5607 39.5728 27.3672 39.1839 27.3672C38.3198 27.3672 37.7689 27.9532 37.5312 29.1254C37.2936 30.2975 37.1748 31.6148 37.1748 33.0773C37.1748 34.5183 37.299 35.8249 37.5474 36.997C37.7959 38.1692 38.3846 38.7553 39.3135 38.7553C40.4801 38.7553 41.085 37.6154 41.1283 35.3356L44.9521 35.755C44.6713 37.9918 44.1096 39.6854 43.267 40.8361C42.4245 41.9867 41.0418 42.562 39.1191 42.562ZM54.4692 33.529L58.1635 42.562L62.1817 41.2071L57.4181 30.5287L62.5382 23.9798H57.6126L52.9786 29.948V17.947L48.4418 18.5277V42.1426H52.9786V35.4969L54.4692 33.529ZM70.9854 42.562C68.825 42.562 67.1723 41.7071 66.0273 39.9973C64.8823 38.2875 64.3099 36.0131 64.3099 33.1741C64.3099 30.2921 64.8931 28.0017 66.0597 26.3026C67.2263 24.6035 68.9222 23.754 71.1474 23.754C73.2646 23.754 74.8848 24.6035 76.0082 26.3026C77.1316 28.0017 77.6933 30.2921 77.6933 33.1741C77.6933 33.3462 77.6609 33.4699 77.5961 33.5451C77.5313 33.6204 77.4989 33.6688 77.4989 33.6903H68.8466C68.8466 35.0883 69.0302 36.3626 69.3975 37.5132C69.7648 38.6639 70.3265 39.2392 71.0826 39.2392C71.9251 39.2392 72.5516 38.7553 72.9621 37.7874C73.3726 36.8196 73.5886 36.3142 73.6102 36.2712L77.0452 37.5616C76.5915 39.1101 75.8678 40.3307 74.874 41.2232C73.8803 42.1158 72.5841 42.562 70.9854 42.562ZM72.7021 28.0123C73.0478 28.7651 73.2206 29.7867 73.2206 31.0771H68.8458C68.8458 30.3028 68.9539 29.5931 69.1699 28.9479C69.3859 28.3027 69.6668 27.7972 70.0124 27.4316C70.3581 27.066 70.7146 26.8832 71.0818 26.8832C71.8164 26.8832 72.3564 27.2596 72.7021 28.0123ZM87.2085 42.4974C85.7395 42.4974 84.4973 42.1264 83.4819 41.3844C82.4665 40.6424 81.9588 39.3251 81.9588 37.4325V27.3994H79.4312L79.6257 23.9797H82.0885L82.5422 20.0439L86.4956 19.4955V23.9797H90.2547L90.0602 27.3994H86.528V37.4002C86.528 38.0454 86.6901 38.5078 87.0141 38.7874C87.3382 39.067 87.8134 39.2068 88.4399 39.2068C88.7856 39.2068 89.3689 39.1423 90.1898 39.0133V42.1426C90.1034 42.1641 89.7632 42.2286 89.1691 42.3361C88.575 42.4437 87.9215 42.4974 87.2085 42.4974ZM94.2949 41.3522C95.3967 42.1588 96.8441 42.562 98.6372 42.562C99.7174 42.562 100.744 42.3416 101.716 41.9007C102.688 41.4598 103.476 40.8038 104.081 39.9328C104.686 39.0617 104.989 38.0025 104.989 36.7551C104.989 35.3786 104.665 34.2818 104.017 33.4645C103.368 32.6472 102.472 31.9697 101.327 31.432L98.0863 30.1094C97.0277 29.6362 96.4984 29.12 96.4984 28.5608C96.4984 28.0877 96.6929 27.7274 97.0817 27.4801C97.4706 27.2328 97.9351 27.1091 98.4752 27.1091C99.2097 27.1091 99.8146 27.4747 100.29 28.206C100.506 28.5716 100.657 28.9372 100.744 29.3028L104.503 28.1414C104.114 26.7865 103.347 25.7165 102.202 24.9315C101.057 24.1465 99.8038 23.754 98.4428 23.754C97.3626 23.754 96.3526 23.9744 95.4129 24.4153C94.4731 24.8562 93.717 25.496 93.1445 26.3348C92.572 27.1736 92.2857 28.1737 92.2857 29.3351C92.2857 30.5825 92.5558 31.6364 93.0959 32.4967C93.636 33.3569 94.4137 34.0022 95.4291 34.4323L99.2529 35.9808C100.182 36.3464 100.646 36.8626 100.646 37.5293C100.646 38.024 100.398 38.3896 99.901 38.6262C99.4041 38.8628 98.8856 38.9811 98.3456 38.9811C97.395 38.9811 96.6713 38.6262 96.1744 37.9165C95.9368 37.5939 95.7747 37.2282 95.6883 36.8196L92.1561 37.981C92.4802 39.422 93.1931 40.5457 94.2949 41.3522Z" fill="white"/>
<path d="M24.8956 21.4635V16.5291L29.3953 16.1888V21.2593L24.8956 21.4635Z" fill="#FFD875"/>
<path fill-rule="evenodd" clip-rule="evenodd" d="M75.2905 11.1451L79.7901 10.9141V15.9715L75.2905 16.1888V11.1451Z" fill="#FFD875"/>
</svg>
