<svg width="1440" height="379" viewBox="0 0 1440 379" fill="none" xmlns="http://www.w3.org/2000/svg">
<path d="M1238.5 0.5C1306.96 0.499826 1400.5 33.5 1440 101.5V353H457.5C471.667 303.666 531.1 189.4 655.5 127C811 48.9998 869 101.5 947.5 101.5C1032.15 101.5 1159 0.500202 1238.5 0.5Z" fill="#F0F6FC"/>
<path d="M1165.81 76C1265.42 75.9997 1404.84 148.388 1440 205.115V359H786C842.6 174.276 1070.45 76.0003 1165.81 76Z" fill="#E8F0F9"/>
<path d="M96.5 82C37.5 82 5.5 129.5 0 186.333V354H707.5C698.041 321.111 658.395 162.5 565.5 162.5C466 162.5 447.413 95 395 95C338 95 305.5 115 250 115C184 115 166.5 82 96.5 82Z" fill="#F0F6FC"/>
<path d="M1099 162.007V282.507H1319V162.007L1205.96 104L1099 162.007Z" fill="#FFFDF2"/>
<path d="M1099 269.507V282.507H1319V162.007L1206.23 104L1099 162.007V257.507" stroke="#627E8C" stroke-width="2" stroke-linecap="round"/>
<path d="M1111.23 158.008L1117.38 158.007C1117.86 158.007 1118.33 157.892 1118.76 157.671L1200 115.61C1200.86 115.163 1201.89 115.162 1202.75 115.608L1288.12 159.673C1288.54 159.893 1289.01 160.007 1289.49 160.007L1296.2 160.008C1299.31 160.009 1300.37 155.877 1297.65 154.381L1205.78 103.776C1204.9 103.291 1203.84 103.28 1202.95 103.745L1109.84 152.349C1107.06 153.801 1108.1 158.009 1111.23 158.008Z" fill="#F5DCCC" fill-opacity="0.5"/>
<path d="M1314.18 163.008L1308.03 163.007C1307.55 163.007 1307.07 162.89 1306.64 162.665L1205.3 109.625C1204.42 109.169 1203.39 109.169 1202.51 109.625L1110.48 157.791C1109.51 158.299 1108.34 158.238 1107.43 157.63L1104.73 155.834C1102.83 154.57 1102.98 151.735 1105 150.679L1202.52 99.726C1203.39 99.2712 1204.42 99.2712 1205.29 99.726L1315.57 157.349C1318.35 158.802 1317.32 163.009 1314.18 163.008Z" fill="#F7F9F4"/>
<path d="M1139.39 132.765L1202.52 99.7275C1203.39 99.2718 1204.42 99.2714 1205.3 99.7266L1315.57 157.349C1318.35 158.802 1317.32 163.009 1314.18 163.008L1308.03 163.007C1307.55 163.007 1307.07 162.89 1306.64 162.665L1205.3 109.625C1204.42 109.169 1203.39 109.169 1202.51 109.625L1110.38 157.845C1109.46 158.324 1108.36 158.298 1107.47 157.775L1104.59 156.087C1102.55 154.894 1102.63 151.927 1104.72 150.837L1128.35 138.531" stroke="#627E8C" stroke-width="2" stroke-linecap="round"/>
<circle cx="1203" cy="147" r="16" fill="#A0D5F2"/>
<mask id="path-10-inside-1" fill="white">
<path d="M1214.31 158.314C1217.31 155.313 1219 151.243 1219 147C1219 142.757 1217.31 138.687 1214.31 135.686C1211.31 132.686 1207.24 131 1203 131C1198.76 131 1194.69 132.686 1191.69 135.686L1192.69 136.686C1195.42 133.95 1199.13 132.414 1203 132.414C1206.87 132.414 1210.58 133.95 1213.31 136.686C1216.05 139.421 1217.59 143.131 1217.59 147C1217.59 150.869 1216.05 154.579 1213.31 157.314L1214.31 158.314Z"/>
</mask>
<path d="M1214.31 158.314C1217.31 155.313 1219 151.243 1219 147C1219 142.757 1217.31 138.687 1214.31 135.686C1211.31 132.686 1207.24 131 1203 131C1198.76 131 1194.69 132.686 1191.69 135.686L1192.69 136.686C1195.42 133.95 1199.13 132.414 1203 132.414C1206.87 132.414 1210.58 133.95 1213.31 136.686C1216.05 139.421 1217.59 143.131 1217.59 147C1217.59 150.869 1216.05 154.579 1213.31 157.314L1214.31 158.314Z" stroke="#81BDDE" stroke-width="4" mask="url(#path-10-inside-1)"/>
<mask id="mask0" mask-type="alpha" maskUnits="userSpaceOnUse" x="1187" y="131" width="32" height="32">
<circle cx="1203" cy="147" r="16" fill="#A0D5F2"/>
</mask>
<g mask="url(#mask0)">
<rect width="37.48" height="5.70631" rx="1" transform="matrix(0.98347 -0.181069 0.600423 0.799682 1182 146.786)" fill="#B1E0FA"/>
<rect width="37.48" height="2.28252" rx="1" transform="matrix(0.98347 -0.181069 0.600423 0.799682 1186.8 153.175)" fill="#B1E0FA"/>
</g>
<path d="M998 201.007V321.507H1218V201.007L1104.96 143L998 201.007Z" fill="#FFFDF2"/>
<path d="M998 308.507V321.507H1218V201.007L1105.23 143L998 201.007V296.507" stroke="#627E8C" stroke-width="2" stroke-linecap="round"/>
<path d="M1218 186L1306 140L1404 191V364H1218V234.468V223.763V186Z" fill="#FFFDF2"/>
<rect x="1235" y="234" width="149" height="131" rx="3" fill="white"/>
<line x1="1239" y1="267.5" x2="1380" y2="267.5" stroke="#EAE7D6"/>
<line x1="1239" y1="251.5" x2="1380" y2="251.5" stroke="#EAE7D6"/>
<line x1="1239" y1="299.5" x2="1380" y2="299.5" stroke="#EAE7D6"/>
<line x1="1239" y1="283.5" x2="1380" y2="283.5" stroke="#EAE7D6"/>
<line x1="1239" y1="331.5" x2="1380" y2="331.5" stroke="#EAE7D6"/>
<line x1="1239" y1="315.5" x2="1380" y2="315.5" stroke="#EAE7D6"/>
<line x1="1239" y1="347.5" x2="1380" y2="347.5" stroke="#EAE7D6"/>
<path d="M1235 237C1235 235.343 1236.34 234 1238 234H1381C1382.66 234 1384 235.343 1384 237V362C1384 363.657 1382.66 365 1381 365H1379.5C1377.84 365 1376.5 363.657 1376.5 362V244C1376.5 242.343 1375.16 241 1373.5 241H1238C1236.34 241 1235 239.657 1235 238V237Z" fill="#E4E0CB" fill-opacity="0.5"/>
<path d="M1364.5 234H1381C1382.66 234 1384 235.343 1384 237V361C1384 362.657 1382.66 364 1381 364H1238C1236.34 364 1235 362.657 1235 361V237C1235 235.343 1236.34 234 1238 234H1348.5" stroke="#627E8C" stroke-width="2" stroke-linecap="round"/>
<path d="M1404 311.401V192.209C1404 191.465 1403.59 190.784 1402.93 190.438L1305.92 139.485C1305.34 139.181 1304.65 139.179 1304.07 139.479L1219.08 183.441C1218.42 183.784 1218 184.47 1218 185.217V362C1218 363.105 1218.9 364 1220 364H1311H1402C1403.1 364 1404 363.105 1404 362V335.452" stroke="#627E8C" stroke-width="2" stroke-linecap="round"/>
<mask id="path-28-inside-2" fill="white">
<rect x="1135" y="206" width="52" height="113" rx="1"/>
</mask>
<rect x="1135" y="206" width="52" height="113" rx="1" fill="#FFFFD3" stroke="#627E8C" stroke-width="4" mask="url(#path-28-inside-2)"/>
<rect x="1139" y="217" width="21" height="17" rx="1" fill="#A0D5F2"/>
<path d="M1160 218V233.5C1160 233.776 1159.78 234 1159.5 234C1159.22 234 1159 233.776 1159 233.5V219C1159 218.5 1158.5 218 1158 218H1139.5C1139.22 218 1139 217.776 1139 217.5C1139 217.224 1139.22 217 1139.5 217H1159C1159.55 217 1160 217.448 1160 218Z" fill="#81BDDE"/>
<mask id="mask1" mask-type="alpha" maskUnits="userSpaceOnUse" x="1139" y="217" width="21" height="17">
<path d="M1139 218C1139 217.448 1139.45 217 1140 217H1159C1159.55 217 1160 217.448 1160 218V233C1160 233.552 1159.55 234 1159 234H1140C1139.45 234 1139 233.552 1139 233V218Z" fill="#C4C4C4"/>
</mask>
<g mask="url(#mask1)">
<rect width="27.8742" height="4.24382" rx="1" transform="matrix(0.98347 -0.181069 0.600423 0.799682 1134 226.047)" fill="#B1E0FA"/>
<rect width="27.8742" height="1.69753" rx="0.848765" transform="matrix(0.98347 -0.181069 0.600423 0.799682 1137.57 230.798)" fill="#B1E0FA"/>
</g>
<rect x="1139" y="292" width="21" height="17" rx="1" fill="#A0D5F2"/>
<path d="M1160 293V308.5C1160 308.776 1159.78 309 1159.5 309C1159.22 309 1159 308.776 1159 308.5V294C1159 293.5 1158.5 293 1158 293H1139.5C1139.22 293 1139 292.776 1139 292.5C1139 292.224 1139.22 292 1139.5 292H1159C1159.55 292 1160 292.448 1160 293Z" fill="#81BDDE"/>
<mask id="mask2" mask-type="alpha" maskUnits="userSpaceOnUse" x="1139" y="292" width="21" height="17">
<path d="M1139 293C1139 292.448 1139.45 292 1140 292H1159C1159.55 292 1160 292.448 1160 293V308C1160 308.552 1159.55 309 1159 309H1140C1139.45 309 1139 308.552 1139 308V293Z" fill="#C4C4C4"/>
</mask>
<g mask="url(#mask2)">
<rect width="27.8742" height="4.24382" rx="1" transform="matrix(0.98347 -0.181069 0.600423 0.799682 1134 301.047)" fill="#B1E0FA"/>
<rect width="27.8742" height="1.69753" rx="0.848765" transform="matrix(0.98347 -0.181069 0.600423 0.799682 1137.57 305.798)" fill="#B1E0FA"/>
</g>
<rect x="1162" y="292" width="21" height="17" rx="1" fill="#A0D5F2"/>
<path d="M1183 293V308.5C1183 308.776 1182.78 309 1182.5 309C1182.22 309 1182 308.776 1182 308.5V294C1182 293.5 1181.5 293 1181 293H1162.5C1162.22 293 1162 292.776 1162 292.5C1162 292.224 1162.22 292 1162.5 292H1182C1182.55 292 1183 292.448 1183 293Z" fill="#81BDDE"/>
<mask id="mask3" mask-type="alpha" maskUnits="userSpaceOnUse" x="1162" y="292" width="21" height="17">
<path d="M1162 293C1162 292.448 1162.45 292 1163 292H1182C1182.55 292 1183 292.448 1183 293V308C1183 308.552 1182.55 309 1182 309H1163C1162.45 309 1162 308.552 1162 308V293Z" fill="#C4C4C4"/>
</mask>
<g mask="url(#mask3)">
<rect width="27.8742" height="4.24382" rx="1" transform="matrix(0.98347 -0.181069 0.600423 0.799682 1157 301.047)" fill="#B1E0FA"/>
<rect width="27.8742" height="1.69753" rx="0.848765" transform="matrix(0.98347 -0.181069 0.600423 0.799682 1160.57 305.798)" fill="#B1E0FA"/>
</g>
<rect x="1162" y="217" width="21" height="17" rx="1" fill="#A0D5F2"/>
<path d="M1183 218V233.5C1183 233.776 1182.78 234 1182.5 234C1182.22 234 1182 233.776 1182 233.5V219C1182 218.5 1181.5 218 1181 218H1162.5C1162.22 218 1162 217.776 1162 217.5C1162 217.224 1162.22 217 1162.5 217H1182C1182.55 217 1183 217.448 1183 218Z" fill="#81BDDE"/>
<mask id="mask4" mask-type="alpha" maskUnits="userSpaceOnUse" x="1162" y="217" width="21" height="17">
<path d="M1162 218C1162 217.448 1162.45 217 1163 217H1182C1182.55 217 1183 217.448 1183 218V233C1183 233.552 1182.55 234 1182 234H1163C1162.45 234 1162 233.552 1162 233V218Z" fill="#C4C4C4"/>
</mask>
<g mask="url(#mask4)">
<rect width="27.8742" height="4.24382" rx="1" transform="matrix(0.98347 -0.181069 0.600423 0.799682 1157 226.047)" fill="#B1E0FA"/>
<rect width="27.8742" height="1.69753" rx="0.848765" transform="matrix(0.98347 -0.181069 0.600423 0.799682 1160.57 230.798)" fill="#B1E0FA"/>
</g>
<rect x="1139" y="238" width="21" height="50" rx="1" fill="#A0D5F2"/>
<path d="M1160 239V287.5C1160 287.776 1159.78 288 1159.5 288C1159.22 288 1159 287.802 1159 287.526V240C1159 239.5 1158.5 239 1158 239H1139.5C1139.22 239 1139 238.776 1139 238.5C1139 238.224 1139.22 238 1139.5 238H1159C1159.55 238 1160 238.448 1160 239Z" fill="#81BDDE"/>
<mask id="mask5" mask-type="alpha" maskUnits="userSpaceOnUse" x="1139" y="238" width="21" height="50">
<path d="M1139 239C1139 238.448 1139.45 238 1140 238H1159C1159.55 238 1160 238.448 1160 239V287C1160 287.552 1159.55 288 1159 288H1140C1139.45 288 1139 287.552 1139 287V239Z" fill="#C4C4C4"/>
</mask>
<g mask="url(#mask5)">
<rect width="59.968" height="9.13009" rx="1" transform="matrix(0.98347 -0.181069 0.600423 0.799682 1115.58 261.858)" fill="#B1E0FA"/>
<rect width="59.968" height="3.65204" rx="1" transform="matrix(0.98347 -0.181069 0.600423 0.799682 1123.25 272.08)" fill="#B1E0FA"/>
</g>
<rect x="1162" y="238" width="21" height="50" rx="1" fill="#A0D5F2"/>
<path d="M1183 239V287.5C1183 287.776 1182.78 288 1182.5 288C1182.22 288 1182 287.802 1182 287.526V240C1182 239.5 1181.5 239 1181 239H1162.5C1162.22 239 1162 238.776 1162 238.5C1162 238.224 1162.22 238 1162.5 238H1182C1182.55 238 1183 238.448 1183 239Z" fill="#81BDDE"/>
<mask id="mask6" mask-type="alpha" maskUnits="userSpaceOnUse" x="1162" y="238" width="21" height="50">
<path d="M1162 239C1162 238.448 1162.45 238 1163 238H1182C1182.55 238 1183 238.448 1183 239V287C1183 287.552 1182.55 288 1182 288H1163C1162.45 288 1162 287.552 1162 287V239Z" fill="#C4C4C4"/>
</mask>
<g mask="url(#mask6)">
<rect width="59.968" height="9.13009" rx="1" transform="matrix(0.98347 -0.181069 0.600423 0.799682 1138.58 261.858)" fill="#B1E0FA"/>
<rect width="59.968" height="3.65204" rx="1" transform="matrix(0.98347 -0.181069 0.600423 0.799682 1146.25 272.08)" fill="#B1E0FA"/>
</g>
<rect x="1018" y="318" width="199" height="46" fill="#FFFCE5" stroke="#627E8C" stroke-width="2"/>
<rect x="996" y="192" width="16" height="125" rx="3" fill="#FFFCE5"/>
<path d="M996 212V195C996 193.343 997.343 192 999 192H1009C1010.66 192 1012 193.343 1012 195V314C1012 315.657 1010.66 317 1009 317H999C997.343 317 996 315.657 996 314V226" stroke="#627E8C" stroke-width="2"/>
<rect x="1204" y="193" width="14" height="123" rx="2" fill="#FFFCE5" stroke="#627E8C" stroke-width="2"/>
<rect x="990" y="316" width="28" height="48" rx="2" fill="#FFFCE5" stroke="#627E8C" stroke-width="2"/>
<path d="M1016 339.5C1016 346.5 1018.99 353.376 1022.72 357.5C1025.41 360.467 1031.91 362 1040.81 361C1044.68 361.825 1058.31 357.5 1059.81 357.5C1061.3 357.5 1065.31 345.82 1065.31 341.695C1065.31 337.571 1065.31 331.797 1063.81 327.672C1062.9 325.148 1060.59 324.002 1058.59 322.649C1057.32 321.792 1056.18 320.851 1055.6 319.424C1055.05 318.089 1053.73 316.745 1051.86 315.575C1050.98 315.021 1049.97 314.505 1048.87 314.048C1045.9 312.81 1042.24 312 1038.41 312C1031.84 312 1025.21 319.403 1022.72 323.105C1019.09 328.5 1016 333.5 1016 339.5Z" fill="#B8E05C"/>
<path d="M1040.81 364C1040.81 361 1040.77 361.895 1040.81 361M1040.81 361C1031.91 362 1025.41 360.467 1022.72 357.5C1018.99 353.376 1016 346.5 1016 339.5C1016 333.5 1019.09 328.5 1022.72 323.105C1025.21 319.403 1031.84 312 1038.41 312C1042.24 312 1045.9 312.81 1048.87 314.048C1049.97 314.505 1050.98 315.021 1051.86 315.575C1053.73 316.745 1055.05 318.089 1055.6 319.424C1056.18 320.851 1057.32 321.792 1058.59 322.649C1060.59 324.002 1062.9 325.148 1063.81 327.672C1065.31 331.797 1065.31 337.571 1065.31 341.695C1065.31 345.82 1061.3 357.5 1059.81 357.5C1058.31 357.5 1044.68 361.825 1040.81 361Z" stroke="#627E8C" stroke-width="2"/>
<path d="M1128.62 339.5C1128.62 346.5 1125.63 353.376 1121.89 357.5C1119.21 360.467 1112.7 362 1103.81 361C1099.93 361.825 1086.3 357.5 1084.81 357.5C1083.31 357.5 1079.31 345.82 1079.31 341.695C1079.31 337.571 1079.31 331.797 1080.8 327.672C1081.72 325.148 1084.03 324.002 1086.03 322.649C1087.3 321.792 1088.44 320.851 1089.02 319.424C1089.56 318.089 1090.89 316.745 1092.76 315.575C1093.64 315.021 1094.65 314.505 1095.75 314.048C1098.72 312.81 1102.38 312 1106.2 312C1112.78 312 1119.4 319.403 1121.89 323.105C1125.52 328.5 1128.62 333.5 1128.62 339.5Z" fill="#B8E05C"/>
<path d="M1103.81 364C1103.81 361 1103.85 361.895 1103.81 361M1103.81 361C1112.7 362 1119.21 360.467 1121.89 357.5C1125.63 353.376 1128.62 346.5 1128.62 339.5C1128.62 333.5 1125.52 328.5 1121.89 323.105C1119.4 319.403 1112.78 312 1106.2 312C1102.38 312 1098.72 312.81 1095.75 314.048C1094.65 314.505 1093.64 315.021 1092.76 315.575C1090.89 316.745 1089.56 318.089 1089.02 319.424C1088.44 320.851 1087.3 321.792 1086.03 322.649C1084.03 324.002 1081.72 325.148 1080.8 327.672C1079.31 331.797 1079.31 337.571 1079.31 341.695C1079.31 345.82 1083.31 357.5 1084.81 357.5C1086.3 357.5 1099.93 361.825 1103.81 361Z" stroke="#627E8C" stroke-width="2"/>
<path d="M1192.62 339.5C1192.62 346.5 1189.63 353.376 1185.89 357.5C1183.21 360.467 1176.7 362 1167.81 361C1163.93 361.825 1150.3 357.5 1148.81 357.5C1147.31 357.5 1143.31 345.82 1143.31 341.695C1143.31 337.571 1143.31 331.797 1144.8 327.672C1145.72 325.148 1146.81 323.353 1148.81 322C1150.08 321.143 1151.42 318.428 1152 317C1152.54 315.665 1154.89 316.745 1156.76 315.575C1157.64 315.021 1158.65 314.505 1159.75 314.048C1162.72 312.81 1166.38 312 1170.2 312C1176.78 312 1183.4 319.403 1185.89 323.105C1189.52 328.5 1192.62 333.5 1192.62 339.5Z" fill="#B8E05C"/>
<path d="M1167.81 364C1167.81 361 1167.85 361.895 1167.81 361M1167.81 361C1176.7 362 1183.21 360.467 1185.89 357.5C1189.63 353.376 1192.62 346.5 1192.62 339.5C1192.62 333.5 1189.52 328.5 1185.89 323.105C1183.4 319.403 1176.78 312 1170.2 312C1166.38 312 1162.72 312.81 1159.75 314.048C1158.65 314.505 1157.64 315.021 1156.76 315.575C1154.89 316.745 1153.5 315.575 1151.5 317.5C1150.39 318.568 1150.08 320.643 1148.81 321.5C1146.81 322.853 1145.72 325.148 1144.8 327.672C1143.31 331.797 1143.31 337.571 1143.31 341.695C1143.31 345.82 1147.31 357.5 1148.81 357.5C1150.3 357.5 1163.93 361.825 1167.81 361Z" stroke="#627E8C" stroke-width="2"/>
<rect x="1197" y="316" width="28" height="48" rx="2" fill="#FFFCE5" stroke="#627E8C" stroke-width="2"/>
<mask id="path-71-inside-3" fill="white">
<rect x="1033" y="206" width="83" height="72" rx="1"/>
</mask>
<rect x="1033" y="206" width="83" height="72" rx="1" fill="#F7F9F4" stroke="#627E8C" stroke-width="4" mask="url(#path-71-inside-3)"/>
<rect x="1037" y="210" width="75" height="64" fill="#A0D5F2"/>
<path d="M1112 274H1108V216C1108 214.4 1107 214 1106.5 214H1037V210H1112V274Z" fill="#81BDDE"/>
<mask id="mask7" mask-type="alpha" maskUnits="userSpaceOnUse" x="1037" y="210" width="75" height="64">
<path d="M1037 210H1112V274H1037V210Z" fill="#C4C4C4"/>
</mask>
<g mask="url(#mask7)">
<rect width="124.835" height="20.4223" transform="matrix(0.979354 -0.202153 0.556447 0.830883 1001.13 239.201)" fill="#B1E0FA"/>
<rect width="124.835" height="8.16893" transform="matrix(0.979354 -0.202153 0.556447 0.830883 1017.04 262.956)" fill="#B1E0FA"/>
</g>
<path d="M1212.83 193.008L1218.97 193.007C1219.45 193.007 1219.93 192.892 1220.35 192.671L1301.59 150.61C1302.46 150.163 1303.48 150.162 1304.35 150.609L1389.71 194.673C1390.14 194.893 1390.61 195.007 1391.09 195.007L1397.8 195.009C1400.9 195.009 1401.96 190.877 1399.25 189.381L1307.38 138.777C1306.5 138.292 1305.43 138.28 1304.54 138.745L1211.44 187.349C1208.66 188.801 1209.69 193.009 1212.83 193.008Z" fill="#F5DCCC" fill-opacity="0.5"/>
<path d="M1415.78 198.009L1409.63 198.007C1409.14 198.007 1408.67 197.89 1408.24 197.665L1306.89 144.625C1306.02 144.169 1304.98 144.169 1304.11 144.625L1212.07 192.791C1211.1 193.3 1209.93 193.238 1209.02 192.63L1206.33 190.835C1204.43 189.57 1204.58 186.735 1206.6 185.679L1304.11 134.726C1304.98 134.271 1306.02 134.271 1306.89 134.726L1417.17 192.35C1419.95 193.802 1418.91 198.009 1415.78 198.009Z" fill="#F7F9F4"/>
<path d="M1240.99 167.765L1304.11 134.728C1304.98 134.272 1306.02 134.272 1306.89 134.727L1417.17 192.35C1419.95 193.802 1418.91 198.009 1415.78 198.009L1409.63 198.007C1409.14 198.007 1408.67 197.89 1408.24 197.665L1306.89 144.625C1306.02 144.169 1304.98 144.169 1304.11 144.625L1211.97 192.845C1211.06 193.324 1209.96 193.298 1209.07 192.775L1206.18 191.087C1204.15 189.894 1204.22 186.927 1206.31 185.837L1229.95 173.532" stroke="#627E8C" stroke-width="2" stroke-linecap="round"/>
<path d="M1010.94 194.008L1016.98 194.007C1017.46 194.007 1017.92 193.894 1018.35 193.678L1102.58 150.607C1103.45 150.162 1104.48 150.169 1105.35 150.624L1190.7 195.661C1191.13 195.888 1191.61 196.007 1192.1 196.007L1198.98 196.009C1202.07 196.009 1203.14 191.902 1200.44 190.392L1108.38 138.79C1107.5 138.297 1106.43 138.279 1105.53 138.742L1009.56 188.343C1006.77 189.787 1007.79 194.009 1010.94 194.008Z" fill="#F5DCCC" fill-opacity="0.5"/>
<path d="M996.224 198.008L1002.37 198.007C1002.86 198.007 1003.33 197.89 1003.76 197.665L1105.11 144.625C1105.98 144.169 1107.02 144.169 1107.89 144.625L1209.24 197.665C1209.67 197.89 1210.14 198.007 1210.63 198.007L1216.78 198.009C1219.91 198.009 1220.95 193.802 1218.17 192.35L1107.89 134.726C1107.02 134.271 1105.98 134.271 1105.11 134.726L994.834 192.349C992.054 193.802 993.087 198.009 996.224 198.008Z" fill="#F7F9F4"/>
<path d="M1083.99 145.765L1105.11 134.726C1105.98 134.271 1107.02 134.271 1107.89 134.726L1218.17 192.35C1220.95 193.802 1219.91 198.009 1216.78 198.009L1210.63 198.007C1210.14 198.007 1209.67 197.89 1209.24 197.665L1107.89 144.625C1107.02 144.169 1105.98 144.169 1105.11 144.625L1003.76 197.665C1003.33 197.89 1002.86 198.007 1002.37 198.007L996.224 198.008C993.087 198.009 992.054 193.802 994.834 192.349L1072.95 151.532" stroke="#627E8C" stroke-width="2" stroke-linecap="round"/>
<path d="M519 181.507V302.007H598L619 308.007H710L731 302.007H816.5V181.507L664 112.007L519 181.507Z" fill="#FFEEE3"/>
<path d="M519 289.007V302.007H598L619 308.007H710L731 302.007H816.5V181.507L664 112.007L519 181.507V277.007" stroke="#627E8C" stroke-width="2" stroke-linecap="round"/>
<mask id="mask8" mask-type="alpha" maskUnits="userSpaceOnUse" x="518" y="110" width="300" height="198">
<path d="M519 180.798V300.068H598.133L619.168 306.007H710.321L731.356 300.068H817V180.798L664.244 112.007L519 180.798Z" fill="#F1F9E1" stroke="#627E8C" stroke-width="2"/>
</mask>
<g mask="url(#mask8)">
<g filter="url(#filter0_d)">
<rect x="574" y="107.007" width="3" height="195" fill="#FFF0E6"/>
</g>
<g filter="url(#filter1_d)">
<rect x="530" y="107.007" width="3" height="195" fill="#FFF0E6"/>
</g>
<g filter="url(#filter2_d)">
<rect x="541" y="107.007" width="3" height="195" fill="#FFF0E6"/>
</g>
<g filter="url(#filter3_d)">
<rect x="552" y="107.007" width="3" height="195" fill="#FFF0E6"/>
</g>
<g filter="url(#filter4_d)">
<rect x="563" y="107.007" width="3" height="195" fill="#FFF0E6"/>
</g>
<g filter="url(#filter5_d)">
<rect x="629" y="107.007" width="3" height="201" fill="#FFF0E6"/>
</g>
<g filter="url(#filter6_d)">
<rect x="585" y="107.007" width="3" height="195" fill="#FFF0E6"/>
</g>
<g filter="url(#filter7_d)">
<rect x="596" y="107.007" width="3" height="195" fill="#FFF0E6"/>
</g>
<g filter="url(#filter8_d)">
<rect x="607" y="107.007" width="3" height="201" fill="#FFF0E6"/>
</g>
<g filter="url(#filter9_d)">
<rect x="618" y="107.007" width="3" height="201" fill="#FFF0E6"/>
</g>
<g filter="url(#filter10_d)">
<rect x="684" y="107.007" width="3" height="201" fill="#FFF0E6"/>
</g>
<g filter="url(#filter11_d)">
<rect x="640" y="107.007" width="3" height="201" fill="#FFF0E6"/>
</g>
<g filter="url(#filter12_d)">
<rect x="651" y="107.007" width="3" height="201" fill="#FFF0E6"/>
</g>
<g filter="url(#filter13_d)">
<rect x="662" y="107.007" width="3" height="201" fill="#FFF0E6"/>
</g>
<g filter="url(#filter14_d)">
<rect x="673" y="107.007" width="3" height="201" fill="#FFF0E6"/>
</g>
<g filter="url(#filter15_d)">
<rect x="739" y="107.007" width="3" height="195" fill="#FFF0E6"/>
</g>
<g filter="url(#filter16_d)">
<rect x="695" y="107.007" width="3" height="201" fill="#FFF0E6"/>
</g>
<g filter="url(#filter17_d)">
<rect x="706" y="107.007" width="3" height="201" fill="#FFF0E6"/>
</g>
<g filter="url(#filter18_d)">
<rect x="717" y="107.007" width="3" height="201" fill="#FFF0E6"/>
</g>
<g filter="url(#filter19_d)">
<rect x="728" y="107.007" width="3" height="195" fill="#FFF0E6"/>
</g>
<g filter="url(#filter20_d)">
<rect x="794" y="107.007" width="3" height="195" fill="#FFF0E6"/>
</g>
<g filter="url(#filter21_d)">
<rect x="750" y="107.007" width="3" height="195" fill="#FFF0E6"/>
</g>
<g filter="url(#filter22_d)">
<rect x="761" y="107.007" width="3" height="195" fill="#FFF0E6"/>
</g>
<g filter="url(#filter23_d)">
<rect x="772" y="107.007" width="3" height="195" fill="#FFF0E6"/>
</g>
<g filter="url(#filter24_d)">
<rect x="783" y="107.007" width="3" height="195" fill="#FFF0E6"/>
</g>
<g filter="url(#filter25_d)">
<rect x="805" y="107.007" width="3" height="195" fill="#FFF0E6"/>
</g>
</g>
<path d="M767.5 336.507H935C936.381 336.507 937.5 337.626 937.5 339.007V349.507H767.5V336.507Z" fill="#F0D1BE" stroke="#627E8C"/>
<rect x="823" y="350.007" width="78" height="10" fill="#FAF6F2" stroke="#627E8C" stroke-width="2"/>
<rect x="828" y="342.007" width="70" height="8" fill="#FAF6F2" stroke="#627E8C" stroke-width="2"/>
<rect x="832" y="336.007" width="62" height="6" fill="#FAF6F2" stroke="#627E8C" stroke-width="2"/>
<path d="M815 181.007H923V337.007H815V216.007V206.007V181.007Z" fill="#F6DBCB"/>
<path d="M815 183.007C815 181.35 816.343 180.007 818 180.007H920C921.657 180.007 923 181.35 923 183.007C923 184.664 921.657 186.007 920 186.007H815V183.007Z" fill="#ECCAB6"/>
<path d="M923 200.007V180.007H815V205.167V215.231V337.007H923V215.007" stroke="#627E8C" stroke-width="2" stroke-linecap="round"/>
<mask id="path-119-inside-4" fill="white">
<rect x="837" y="224.007" width="52" height="113" rx="1"/>
</mask>
<rect x="837" y="224.007" width="52" height="113" rx="1" fill="#F7F9F4" stroke="#627E8C" stroke-width="4" mask="url(#path-119-inside-4)"/>
<rect x="841" y="228.007" width="21" height="17" rx="1" fill="#A0D5F2"/>
<path d="M862 229.007V244.507C862 244.783 861.776 245.007 861.5 245.007C861.224 245.007 861 244.783 861 244.507V230.007C861 229.507 860.5 229.007 860 229.007H841.5C841.224 229.007 841 228.783 841 228.507C841 228.231 841.224 228.007 841.5 228.007H861C861.552 228.007 862 228.455 862 229.007Z" fill="#81BDDE"/>
<mask id="mask9" mask-type="alpha" maskUnits="userSpaceOnUse" x="841" y="224" width="21" height="22">
<path d="M841 225.007C841 224.455 841.448 224.007 842 224.007H861C861.552 224.007 862 224.455 862 225.007V244.007C862 244.559 861.552 245.007 861 245.007H842C841.448 245.007 841 244.559 841 244.007V225.007Z" fill="#C4C4C4"/>
</mask>
<g mask="url(#mask9)">
<rect width="27.8742" height="4.24382" rx="1" transform="matrix(0.98347 -0.181069 0.600423 0.799682 836 237.054)" fill="#B1E0FA"/>
<rect width="27.8742" height="1.69753" rx="0.848765" transform="matrix(0.98347 -0.181069 0.600423 0.799682 839.567 241.805)" fill="#B1E0FA"/>
</g>
<rect x="864" y="228.007" width="21" height="17" rx="1" fill="#A0D5F2"/>
<path d="M885 229.007V244.507C885 244.783 884.776 245.007 884.5 245.007C884.224 245.007 884 244.783 884 244.507V230.007C884 229.507 883.5 229.007 883 229.007H864.5C864.224 229.007 864 228.783 864 228.507C864 228.231 864.224 228.007 864.5 228.007H884C884.552 228.007 885 228.455 885 229.007Z" fill="#81BDDE"/>
<mask id="mask10" mask-type="alpha" maskUnits="userSpaceOnUse" x="864" y="224" width="21" height="22">
<path d="M864 225.007C864 224.455 864.448 224.007 865 224.007H884C884.552 224.007 885 224.455 885 225.007V244.007C885 244.559 884.552 245.007 884 245.007H865C864.448 245.007 864 244.559 864 244.007V225.007Z" fill="#C4C4C4"/>
</mask>
<g mask="url(#mask10)">
<rect width="27.8742" height="4.24382" rx="1" transform="matrix(0.98347 -0.181069 0.600423 0.799682 859 237.054)" fill="#B1E0FA"/>
<rect width="27.8742" height="1.69753" rx="0.848765" transform="matrix(0.98347 -0.181069 0.600423 0.799682 862.567 241.805)" fill="#B1E0FA"/>
</g>
<rect x="841" y="247.007" width="21" height="17" rx="1" fill="#A0D5F2"/>
<path d="M862 248.007V263.507C862 263.783 861.776 264.007 861.5 264.007C861.224 264.007 861 263.783 861 263.507V249.007C861 248.507 860.5 248.007 860 248.007H841.5C841.224 248.007 841 247.783 841 247.507C841 247.231 841.224 247.007 841.5 247.007H861C861.552 247.007 862 247.455 862 248.007Z" fill="#81BDDE"/>
<mask id="mask11" mask-type="alpha" maskUnits="userSpaceOnUse" x="841" y="243" width="21" height="22">
<path d="M841 244.007C841 243.455 841.448 243.007 842 243.007H861C861.552 243.007 862 243.455 862 244.007V263.007C862 263.559 861.552 264.007 861 264.007H842C841.448 264.007 841 263.559 841 263.007V244.007Z" fill="#C4C4C4"/>
</mask>
<g mask="url(#mask11)">
<rect width="27.8742" height="4.24382" rx="1" transform="matrix(0.98347 -0.181069 0.600423 0.799682 836 256.054)" fill="#B1E0FA"/>
<rect width="27.8742" height="1.69753" rx="0.848765" transform="matrix(0.98347 -0.181069 0.600423 0.799682 839.567 260.805)" fill="#B1E0FA"/>
</g>
<rect x="864" y="247.007" width="21" height="17" rx="1" fill="#A0D5F2"/>
<path d="M885 248.007V263.507C885 263.783 884.776 264.007 884.5 264.007C884.224 264.007 884 263.783 884 263.507V249.007C884 248.507 883.5 248.007 883 248.007H864.5C864.224 248.007 864 247.783 864 247.507C864 247.231 864.224 247.007 864.5 247.007H884C884.552 247.007 885 247.455 885 248.007Z" fill="#81BDDE"/>
<mask id="mask12" mask-type="alpha" maskUnits="userSpaceOnUse" x="864" y="243" width="21" height="22">
<path d="M864 244.007C864 243.455 864.448 243.007 865 243.007H884C884.552 243.007 885 243.455 885 244.007V263.007C885 263.559 884.552 264.007 884 264.007H865C864.448 264.007 864 263.559 864 263.007V244.007Z" fill="#C4C4C4"/>
</mask>
<g mask="url(#mask12)">
<rect width="27.8742" height="4.24382" rx="1" transform="matrix(0.98347 -0.181069 0.600423 0.799682 859 256.054)" fill="#B1E0FA"/>
<rect width="27.8742" height="1.69753" rx="0.848765" transform="matrix(0.98347 -0.181069 0.600423 0.799682 862.567 260.805)" fill="#B1E0FA"/>
</g>
<path d="M508 305.007C508 303.35 509.343 302.007 511 302.007H598V350.007H508V305.007Z" fill="#FDE0CE"/>
<path d="M731 302.007H818C819.657 302.007 821 303.35 821 305.007V350.007H731V302.007Z" fill="#FDE0CE"/>
<rect x="619" y="308.007" width="91" height="42" fill="#FDE0CE"/>
<path d="M710 308.007L731 302.507V350.007H710V308.007Z" fill="#FDE6D7"/>
<path d="M619 308.007L598 302.507V350.007H619V308.007Z" fill="#F6D5C1"/>
<path d="M598 302.007H511C511 302.007 508 302.007 508 305.007V349.507H821C821 349.507 820.5 306.007 820.5 305.007C820.5 303.133 819 302.008 817 302.007C815 302.006 731 302.007 731 302.007L710 308.007H619L598 302.007Z" stroke="#627E8C" stroke-width="2"/>
<path d="M823 352.007V365.007C823 366.664 821.657 368.007 820 368.007H502C500.343 368.007 499 366.664 499 365.007V352.007C499 350.35 500.343 349.007 502 349.007H820C821.657 349.007 823 350.35 823 352.007Z" fill="#E8C4AD" stroke="#627E8C" stroke-width="2"/>
<path d="M941 338.007V365.007C941 366.664 939.657 368.007 938 368.007H905C903.343 368.007 902 366.664 902 365.007V338.007C902 336.35 903.343 335.007 905 335.007H938C939.657 335.007 941 336.35 941 338.007Z" fill="#E8C4AD" stroke="#627E8C" stroke-width="2"/>
<path d="M542 336.692C542 339.923 543.878 343.097 546.226 345C547.915 346.37 552.001 347.077 557.592 346.616C560.028 346.996 568.594 345 569.533 345C570.472 345 572.989 339.609 572.989 337.706C572.989 335.802 572.989 333.137 572.05 331.234C571.476 330.068 570.021 329.54 568.764 328.915C567.967 328.519 567.25 328.085 566.885 327.426C566.545 326.81 565.71 326.19 564.538 325.65C563.982 325.394 563.35 325.156 562.66 324.945C560.791 324.374 558.489 324 556.086 324C551.954 324 547.791 327.417 546.226 329.125C543.945 331.615 542 333.923 542 336.692Z" fill="#B8E05C"/>
<path d="M557.592 348C557.592 346.616 557.565 347.028 557.592 346.616M557.592 346.616C552.001 347.077 547.915 346.37 546.226 345C543.878 343.097 542 339.923 542 336.692C542 333.923 543.945 331.615 546.226 329.125C547.791 327.417 551.954 324 556.086 324C558.489 324 560.791 324.374 562.66 324.945C563.35 325.156 563.982 325.394 564.538 325.65C565.71 326.19 566.545 326.81 566.885 327.426C567.25 328.085 567.967 328.519 568.764 328.915C570.021 329.54 571.476 330.068 572.05 331.234C572.989 333.137 572.989 335.802 572.989 337.706C572.989 339.609 570.472 345 569.533 345C568.594 345 560.028 346.996 557.592 346.616Z" stroke="#627E8C" stroke-width="2"/>
<path d="M757.968 336.692C757.968 339.923 759.846 343.097 762.194 345C763.882 346.37 767.969 347.077 773.56 346.616C775.995 346.996 784.562 345 785.501 345C786.44 345 788.957 339.609 788.957 337.706C788.957 335.802 788.957 333.137 788.018 331.234C787.443 330.068 785.989 329.54 784.731 328.915C783.935 328.519 783.217 328.085 782.853 327.426C782.513 326.81 781.678 326.19 780.506 325.65C779.95 325.394 779.318 325.156 778.627 324.945C776.759 324.374 774.457 324 772.054 324C767.922 324 763.759 327.417 762.194 329.125C759.912 331.615 757.968 333.923 757.968 336.692Z" fill="#B8E05C"/>
<path d="M773.56 348C773.56 346.616 773.533 347.028 773.56 346.616M773.56 346.616C767.969 347.077 763.882 346.37 762.194 345C759.846 343.097 757.968 339.923 757.968 336.692C757.968 333.923 759.912 331.615 762.194 329.125C763.759 327.417 767.922 324 772.054 324C774.457 324 776.759 324.374 778.627 324.945C779.318 325.156 779.95 325.394 780.506 325.65C781.678 326.19 782.513 326.81 782.853 327.426C783.217 328.085 783.935 328.519 784.731 328.915C785.989 329.54 787.443 330.068 788.018 331.234C788.957 333.137 788.957 335.802 788.957 337.706C788.957 339.609 786.44 345 785.501 345C784.562 345 775.995 346.996 773.56 346.616Z" stroke="#627E8C" stroke-width="2"/>
<path d="M644.979 336.692C644.979 339.923 643.101 343.097 640.753 345C639.064 346.37 634.978 347.077 629.387 346.616C626.951 346.996 618.385 345 617.446 345C616.507 345 613.989 339.609 613.989 337.706C613.989 335.802 613.989 333.137 614.928 331.234C615.503 330.068 616.958 329.54 618.215 328.915C619.012 328.519 619.729 328.085 620.093 327.426C620.434 326.81 621.269 326.19 622.441 325.65C622.997 325.394 623.628 325.156 624.319 324.945C626.188 324.374 628.489 324 630.893 324C635.025 324 639.188 327.417 640.753 329.125C643.034 331.615 644.979 333.923 644.979 336.692Z" fill="#B8E05C"/>
<path d="M629.387 348C629.387 346.616 629.413 347.028 629.387 346.616M629.387 346.616C634.978 347.077 639.064 346.37 640.753 345C643.101 343.097 644.979 339.923 644.979 336.692C644.979 333.923 643.034 331.615 640.753 329.125C639.188 327.417 635.025 324 630.893 324C628.489 324 626.188 324.374 624.319 324.945C623.628 325.156 622.997 325.394 622.441 325.65C621.269 326.19 620.434 326.81 620.093 327.426C619.729 328.085 619.012 328.519 618.215 328.915C616.958 329.54 615.503 330.068 614.928 331.234C613.989 333.137 613.989 335.802 613.989 337.706C613.989 339.609 616.507 345 617.446 345C618.385 345 626.951 346.996 629.387 346.616Z" stroke="#627E8C" stroke-width="2"/>
<path d="M716.968 336.692C716.968 339.923 715.09 343.097 712.742 345C711.053 346.37 706.967 347.077 701.376 346.616C698.94 346.996 690.374 345 689.435 345C688.496 345 685.979 339.609 685.979 337.706C685.979 335.802 685.979 333.137 686.918 331.234C687.492 330.068 688.178 329.24 689.435 328.615C690.232 328.22 691.076 326.967 691.441 326.308C691.781 325.691 693.258 326.19 694.43 325.65C694.986 325.394 695.618 325.156 696.308 324.945C698.177 324.374 700.479 324 702.882 324C707.014 324 711.177 327.417 712.742 329.125C715.023 331.615 716.968 333.923 716.968 336.692Z" fill="#B8E05C"/>
<path d="M701.376 348C701.376 346.616 701.403 347.028 701.376 346.616M701.376 346.616C706.967 347.077 711.053 346.37 712.742 345C715.09 343.097 716.968 339.923 716.968 336.692C716.968 333.923 715.023 331.615 712.742 329.125C711.177 327.417 707.014 324 702.882 324C700.479 324 698.177 324.374 696.308 324.945C695.618 325.156 694.986 325.394 694.43 325.65C693.258 326.19 692.383 325.65 691.126 326.538C690.429 327.032 690.232 327.989 689.435 328.385C688.178 329.009 687.492 330.068 686.918 331.234C685.979 333.137 685.979 335.802 685.979 337.706C685.979 339.609 688.496 345 689.435 345C690.374 345 698.94 346.996 701.376 346.616Z" stroke="#627E8C" stroke-width="2"/>
<mask id="path-156-inside-5" fill="white">
<rect x="623" y="186.007" width="83" height="113" rx="1"/>
</mask>
<rect x="623" y="186.007" width="83" height="113" rx="1" fill="#F7F9F4" stroke="#627E8C" stroke-width="4" mask="url(#path-156-inside-5)"/>
<rect x="627" y="190.007" width="75" height="105" fill="#A0D5F2"/>
<path d="M702 295.007H698V196.007C698 194.407 697 194.007 696.5 194.007H627V190.007H702V295.007Z" fill="#81BDDE"/>
<mask id="mask13" mask-type="alpha" maskUnits="userSpaceOnUse" x="627" y="190" width="75" height="106">
<path d="M627 190.007H702V295.007H627V190.007Z" fill="#C4C4C4"/>
</mask>
<g mask="url(#mask13)">
<rect width="124.835" height="20.4223" transform="matrix(0.979354 -0.202153 0.556447 0.830883 591.13 244.208)" fill="#B1E0FA"/>
<rect width="124.835" height="8.16893" transform="matrix(0.979354 -0.202153 0.556447 0.830883 607.039 267.963)" fill="#B1E0FA"/>
</g>
<path d="M601 190.799L616 187.269L616 297.815L601 295.168L601 190.799Z" fill="#F7F9F4" stroke="#627E8C" stroke-width="2"/>
<path d="M602 193.007L615 190.007V295.007L602 293.007V193.007Z" fill="#A0D5F2"/>
<path d="M602 293.007L604 293.285V196.95C604 195.365 605 194.969 605.5 194.969L615 191.969V190.007L602 193.007V293.007Z" fill="#81BDDE"/>
<mask id="mask14" mask-type="alpha" maskUnits="userSpaceOnUse" x="602" y="190" width="13" height="106">
<path d="M602 193.007L615 190.007V295.007H602V193.007Z" fill="#C4C4C4"/>
</mask>
<g mask="url(#mask14)">
<rect width="124.835" height="20.4223" transform="matrix(0.979354 -0.202153 0.556447 0.830883 568.13 244.208)" fill="#B1E0FA"/>
<rect width="124.835" height="8.16893" transform="matrix(0.979354 -0.202153 0.556447 0.830883 584.039 267.963)" fill="#B1E0FA"/>
</g>
<path d="M728 190.799L713 187.269L713 297.744L728 294.215L728 190.799Z" fill="#F7F9F4" stroke="#627E8C" stroke-width="2"/>
<path d="M727 193.007L714 190.007V295.007L727 292.007V193.007Z" fill="#A0D5F2"/>
<path d="M727 292.007L725 292.507V196.95C725 195.365 724 194.969 723.5 194.969L714 191.969V190.007L727 193.007V292.007Z" fill="#81BDDE"/>
<mask id="mask15" mask-type="alpha" maskUnits="userSpaceOnUse" x="714" y="190" width="13" height="106">
<path d="M727 193.007L714 190.007V295.007H727V193.007Z" fill="#C4C4C4"/>
</mask>
<g mask="url(#mask15)">
<rect width="124.835" height="20.4223" transform="matrix(0.979354 -0.202153 0.556447 0.830883 618.157 244.208)" fill="#B1E0FA"/>
<rect width="124.835" height="8.16893" transform="matrix(0.979354 -0.202153 0.556447 0.830883 634.066 267.963)" fill="#B1E0FA"/>
</g>
<path d="M548 170.007H501.5L530.356 163.007H563L548 170.007Z" fill="#985851"/>
<path d="M936 170.007H792L758.5 151.007H893.196L936 170.007Z" fill="#985851"/>
<path d="M520 177.007C520 175.35 521.343 174.007 523 174.007H555C556.657 174.007 558 175.35 558 177.007V183.007C558 184.664 556.657 186.007 555 186.007H520V177.007Z" fill="#F5DCCC" fill-opacity="0.5"/>
<rect x="500" y="171.007" width="63" height="10" rx="2" fill="#F7F9F4" stroke="#627E8C" stroke-width="2"/>
<path d="M551.062 170.008L558.247 170.007C558.676 170.007 559.1 169.915 559.491 169.737L658.747 124.468C659.542 124.106 660.457 124.108 661.25 124.475L776.503 177.73C776.897 177.913 777.327 178.007 777.761 178.007L785.076 178.008C788.293 178.009 789.254 173.632 786.333 172.284L661.25 114.577C660.456 114.211 659.543 114.209 658.748 114.571L549.816 164.279C546.882 165.617 547.837 170.009 551.062 170.008Z" fill="#F5DCCC" fill-opacity="0.5"/>
<path d="M538.924 171.008L546.239 171.007C546.673 171.007 547.102 170.913 547.497 170.73L662.742 117.478C663.54 117.11 664.46 117.11 665.258 117.478L780.503 170.73C780.897 170.913 781.327 171.007 781.761 171.007L789.076 171.008C792.293 171.009 793.254 166.632 790.333 165.284L665.257 107.58C664.459 107.212 663.541 107.212 662.743 107.58L537.667 165.284C534.746 166.632 535.707 171.009 538.924 171.008Z" fill="#F7F9F4"/>
<path d="M814 177.007C814 175.35 812.657 174.007 811 174.007H768C766.343 174.007 765 175.35 765 177.007V183.007C765 184.664 766.343 186.007 768 186.007H814V177.007Z" fill="#F5DCCC" fill-opacity="0.5"/>
<rect x="766" y="171.007" width="171" height="10" rx="2" fill="#F7F9F4" stroke="#627E8C" stroke-width="2"/>
<path d="M638.5 118.765L662.743 107.58C663.541 107.212 664.459 107.212 665.257 107.58L790.333 165.284C793.254 166.632 792.293 171.009 789.076 171.008L781.761 171.007C781.327 171.007 780.897 170.913 780.503 170.73L665.258 117.478C664.46 117.11 663.54 117.11 662.742 117.478L547.497 170.73C547.102 170.913 546.673 171.007 546.239 171.007L538.924 171.008C535.707 171.009 534.746 166.632 537.667 165.284L626 124.531" stroke="#627E8C" stroke-width="2" stroke-linecap="round"/>
<path d="M39 191.518V368H440V191.518L238.445 128L39 191.518Z" fill="#CDE9EF"/>
<mask id="path-183-inside-6" fill="white">
<rect x="356" y="265" width="52" height="104" rx="1"/>
</mask>
<rect x="356" y="265" width="52" height="104" rx="1" fill="#F7F9F4" stroke="#627E8C" stroke-width="4" mask="url(#path-183-inside-6)"/>
<circle cx="382" cy="291" r="16" fill="#A0D5F2"/>
<mask id="path-185-inside-7" fill="white">
<path d="M393.314 302.314C396.314 299.313 398 295.243 398 291C398 286.757 396.314 282.687 393.314 279.686C390.313 276.686 386.243 275 382 275C377.757 275 373.687 276.686 370.686 279.686L371.686 280.686C374.421 277.95 378.131 276.414 382 276.414C385.869 276.414 389.579 277.95 392.314 280.686C395.05 283.421 396.586 287.131 396.586 291C396.586 294.869 395.05 298.579 392.314 301.314L393.314 302.314Z"/>
</mask>
<path d="M393.314 302.314C396.314 299.313 398 295.243 398 291C398 286.757 396.314 282.687 393.314 279.686C390.313 276.686 386.243 275 382 275C377.757 275 373.687 276.686 370.686 279.686L371.686 280.686C374.421 277.95 378.131 276.414 382 276.414C385.869 276.414 389.579 277.95 392.314 280.686C395.05 283.421 396.586 287.131 396.586 291C396.586 294.869 395.05 298.579 392.314 301.314L393.314 302.314Z" stroke="#81BDDE" stroke-width="4" mask="url(#path-185-inside-7)"/>
<mask id="mask16" mask-type="alpha" maskUnits="userSpaceOnUse" x="366" y="275" width="32" height="32">
<circle cx="382" cy="291" r="16" fill="#A0D5F2"/>
</mask>
<g mask="url(#mask16)">
<rect width="37.48" height="5.70631" rx="1" transform="matrix(0.98347 -0.181069 0.600423 0.799682 361 290.786)" fill="#B1E0FA"/>
<rect width="37.48" height="2.28252" rx="1" transform="matrix(0.98347 -0.181069 0.600423 0.799682 365.797 297.175)" fill="#B1E0FA"/>
</g>
<mask id="path-189-inside-8" fill="white">
<rect x="68" y="264" width="55" height="44" rx="1"/>
</mask>
<rect x="68" y="264" width="55" height="44" rx="1" fill="#F7F9F4" stroke="#627E8C" stroke-width="4" mask="url(#path-189-inside-8)"/>
<rect x="75" y="270" width="41" height="32" fill="#A0D5F2"/>
<path d="M116 301.898H113.49V273.721C113.49 272.834 112.935 272.612 112.658 272.612H75V270.102H116V301.898Z" fill="#81BDDE"/>
<mask id="mask17" mask-type="alpha" maskUnits="userSpaceOnUse" x="75" y="270" width="41" height="32">
<path d="M75 270.102H116V301.898H75V270.102Z" fill="#C4C4C4"/>
</mask>
<g mask="url(#mask17)">
<rect width="53.9194" height="8.8209" transform="matrix(0.979354 -0.202153 0.556447 0.830883 64.9592 286.859)" fill="#B1E0FA"/>
<rect width="53.9194" height="3.52836" transform="matrix(0.979354 -0.202153 0.556447 0.830883 71.8308 297.119)" fill="#B1E0FA"/>
</g>
<mask id="path-195-inside-9" fill="white">
<rect x="163" y="264" width="55" height="44" rx="1"/>
</mask>
<rect x="163" y="264" width="55" height="44" rx="1" fill="#F7F9F4" stroke="#627E8C" stroke-width="4" mask="url(#path-195-inside-9)"/>
<rect x="170" y="270" width="41" height="32" fill="#A0D5F2"/>
<path d="M211 301.898H208.49V273.721C208.49 272.834 207.935 272.612 207.658 272.612H170V270.102H211V301.898Z" fill="#81BDDE"/>
<mask id="mask18" mask-type="alpha" maskUnits="userSpaceOnUse" x="170" y="270" width="41" height="32">
<path d="M170 270.102H211V301.898H170V270.102Z" fill="#C4C4C4"/>
</mask>
<g mask="url(#mask18)">
<rect width="53.9194" height="8.8209" transform="matrix(0.979354 -0.202153 0.556447 0.830883 159.959 286.859)" fill="#B1E0FA"/>
<rect width="53.9194" height="3.52836" transform="matrix(0.979354 -0.202153 0.556447 0.830883 166.831 297.119)" fill="#B1E0FA"/>
</g>
<mask id="path-201-inside-10" fill="white">
<rect x="258" y="264" width="55" height="44" rx="1"/>
</mask>
<rect x="258" y="264" width="55" height="44" rx="1" fill="#F7F9F4" stroke="#627E8C" stroke-width="4" mask="url(#path-201-inside-10)"/>
<rect x="265" y="270" width="41" height="32" fill="#A0D5F2"/>
<path d="M306 301.898H303.49V273.721C303.49 272.834 302.935 272.612 302.658 272.612H265V270.102H306V301.898Z" fill="#81BDDE"/>
<mask id="mask19" mask-type="alpha" maskUnits="userSpaceOnUse" x="265" y="270" width="41" height="32">
<path d="M265 270.102H306V301.898H265V270.102Z" fill="#C4C4C4"/>
</mask>
<g mask="url(#mask19)">
<rect width="53.9194" height="8.8209" transform="matrix(0.979354 -0.202153 0.556447 0.830883 254.959 286.859)" fill="#B1E0FA"/>
<rect width="53.9194" height="3.52836" transform="matrix(0.979354 -0.202153 0.556447 0.830883 261.831 297.119)" fill="#B1E0FA"/>
</g>
<path d="M221.81 143.22L40.3456 206.053C39.5402 206.331 39 207.09 39 207.942V366.5C39 367.328 39.6716 368 40.5 368C41.3284 368 42 367.328 42 366.5V330C42 192 117 192 117 330V366C117 367.105 117.895 368 119 368H135C136.105 368 137 367.105 137 366V330C137 191 212 191 212 330V366C212 367.105 212.895 368 214 368H230C231.105 368 232 367.105 232 366V330C232 192 307 191 307 330V366C307 367.105 307.895 368 309 368H325C326.105 368 327 367.105 327 366V330C327 191.5 402 192 402 330V366C402 367.105 402.895 368 404 368H421C422.105 368 423 367.105 423 366V209.969C423 209.104 422.444 208.337 421.621 208.068L223.085 143.209C222.67 143.073 222.222 143.077 221.81 143.22Z" fill="#84B3C7" fill-opacity="0.3"/>
<path d="M238.832 127.194L40.3958 190.076C39.5647 190.339 39 191.111 39 191.983V366C39 367.105 39.8954 368 41 368H57C58.1046 368 59 367.105 59 366V314C59 176 134 176 134 314V366C134 367.105 134.895 368 136 368H152C153.105 368 154 367.105 154 366V314C154 175 229 175 229 314V366C229 367.105 229.895 368 231 368H247C248.105 368 249 367.105 249 366V314C249 176 324 175 324 314V366C324 367.105 324.895 368 326 368H342C343.105 368 344 367.105 344 366V314C344 175.5 419 176 419 314V366C419 367.105 419.895 368 421 368H438C439.105 368 440 367.105 440 366V193.969C440 193.104 439.444 192.337 438.621 192.068L240.057 127.2C239.659 127.07 239.231 127.068 238.832 127.194Z" fill="#F0FFFF"/>
<path d="M440 234.5V193.969C440 193.104 439.444 192.337 438.621 192.068L240.057 127.2C239.659 127.07 239.231 127.068 238.832 127.194L40.3958 190.076C39.5647 190.339 39 191.111 39 191.983V366C39 367.105 39.8954 368 41 368H57C58.1046 368 59 367.105 59 366V314C59 176 134 176 134 314V366C134 367.105 134.895 368 136 368H152C153.105 368 154 367.105 154 366V314C154 175 229 175 229 314V366C229 367.105 229.895 368 231 368H247C248.105 368 249 367.105 249 366V314C249 176 324 175 324 314V366C324 367.105 324.895 368 326 368H342C343.105 368 344 367.105 344 366V314C344 175.5 419 176 419 314V366C419 367.105 419.895 368 421 368H438C439.105 368 440 367.105 440 366V260" stroke="#627E8C" stroke-width="2" stroke-linecap="round"/>
<line x1="47" y1="368" x2="428" y2="368" stroke="#627E8C" stroke-width="2"/>
<path d="M65 344.606C65 354.433 66.6582 364.085 68.7309 369.875C70.222 374.04 73.8298 376.192 78.7658 374.788C80.9162 375.946 88.4792 369.875 89.3083 369.875C90.1374 369.875 92.3601 353.477 92.3601 347.688C92.3601 341.898 92.3601 333.792 91.531 328.002C91.0235 324.457 89.7392 322.85 88.6292 320.95C87.9259 319.747 87.2926 318.426 86.971 316.422C86.6703 314.547 85.9332 312.662 84.8983 311.019C84.4076 310.241 83.8499 309.517 83.2401 308.875C81.5901 307.138 79.5582 306 77.4364 306C73.7884 306 70.1127 316.393 68.7309 321.589C66.7168 329.163 65 336.183 65 344.606Z" fill="#B8E05C"/>
<path d="M78.7658 379C78.7658 374.788 78.7425 376.044 78.7658 374.788M78.7658 374.788C73.8298 376.192 70.222 374.04 68.7309 369.875C66.6582 364.085 65 354.433 65 344.606C65 336.183 66.7168 329.163 68.7309 321.589C70.1127 316.393 73.7884 306 77.4364 306C79.5582 306 81.5901 307.138 83.2401 308.875C83.8499 309.517 84.4076 310.241 84.8983 311.019C85.9332 312.662 86.6703 314.547 86.971 316.422C87.2926 318.426 87.9259 319.747 88.6292 320.95C89.7392 322.85 91.0235 324.457 91.531 328.002C92.3601 333.792 92.3601 341.898 92.3601 347.688C92.3601 353.477 90.1374 369.875 89.3083 369.875C88.4792 369.875 80.9162 375.946 78.7658 374.788Z" stroke="#627E8C" stroke-width="2"/>
<path d="M202.72 344.606C202.72 354.433 201.062 364.085 198.99 369.875C197.498 374.04 193.891 376.192 188.955 374.788C186.804 375.946 179.241 369.875 178.412 369.875C177.583 369.875 175.36 353.477 175.36 347.688C175.36 341.898 175.36 333.792 176.189 328.002C176.697 324.457 177.981 322.85 179.091 320.95C179.795 319.747 180.428 318.426 180.749 316.422C181.05 314.547 181.787 312.662 182.822 311.019C183.313 310.241 183.871 309.517 184.48 308.875C186.13 307.138 188.162 306 190.284 306C193.932 306 197.608 316.393 198.99 321.589C201.004 329.163 202.72 336.183 202.72 344.606Z" fill="#B8E05C"/>
<path d="M188.955 379C188.955 374.788 188.978 376.044 188.955 374.788M188.955 374.788C193.891 376.192 197.498 374.04 198.99 369.875C201.062 364.085 202.72 354.433 202.72 344.606C202.72 336.183 201.004 329.163 198.99 321.589C197.608 316.393 193.932 306 190.284 306C188.162 306 186.13 307.138 184.48 308.875C183.871 309.517 183.313 310.241 182.822 311.019C181.787 312.662 181.05 314.547 180.749 316.422C180.428 318.426 179.795 319.747 179.091 320.95C177.981 322.85 176.697 324.457 176.189 328.002C175.36 333.792 175.36 341.898 175.36 347.688C175.36 353.477 177.583 369.875 178.412 369.875C179.241 369.875 186.804 375.946 188.955 374.788Z" stroke="#627E8C" stroke-width="2"/>
<path d="M313.081 344.606C313.081 354.433 311.423 364.085 309.35 369.875C307.859 374.04 304.251 376.192 299.315 374.788C297.165 375.946 289.602 369.875 288.772 369.875C287.943 369.875 285.721 353.477 285.721 347.688C285.721 341.898 285.721 333.792 286.55 328.002C287.057 324.457 287.662 321.938 288.772 320.038C289.476 318.835 290.221 315.023 290.543 313.019C290.844 311.145 292.148 312.662 293.183 311.019C293.673 310.241 294.231 309.517 294.841 308.875C296.491 307.138 298.523 306 300.644 306C304.292 306 307.968 316.393 309.35 321.589C311.364 329.163 313.081 336.183 313.081 344.606Z" fill="#B8E05C"/>
<path d="M299.315 379C299.315 374.788 299.338 376.044 299.315 374.788M299.315 374.788C304.251 376.192 307.859 374.04 309.35 369.875C311.423 364.085 313.081 354.433 313.081 344.606C313.081 336.183 311.364 329.163 309.35 321.589C307.968 316.393 304.292 306 300.644 306C298.523 306 296.491 307.138 294.841 308.875C294.231 309.517 293.673 310.241 293.183 311.019C292.148 312.662 291.375 311.019 290.266 313.721C289.65 315.221 289.476 318.133 288.772 319.337C287.662 321.236 287.057 324.457 286.55 328.002C285.721 333.792 285.721 341.898 285.721 347.688C285.721 353.477 287.943 369.875 288.772 369.875C289.602 369.875 297.165 375.946 299.315 374.788Z" stroke="#627E8C" stroke-width="2"/>
<path d="M44.1179 195.473L59.0351 195.471C59.348 195.471 59.6589 195.422 59.9566 195.326L233.24 139.373C233.833 139.182 234.47 139.18 235.064 139.367L420.659 197.858C420.951 197.95 421.255 197.997 421.561 197.997L432.383 197.998C435.807 197.999 436.56 193.186 433.3 192.141L235.068 128.597C234.472 128.405 233.831 128.406 233.235 128.597L43.2004 189.617C39.9418 190.663 40.6954 195.473 44.1179 195.473Z" fill="#C8F3F3"/>
<path d="M36.536 192.695L51.0905 192.694C51.3963 192.694 51.7003 192.647 51.992 192.555L237.598 134.06C238.185 133.875 238.815 133.875 239.402 134.06L425.008 192.555C425.3 192.647 425.604 192.694 425.909 192.694L440.464 192.696C443.897 192.696 444.639 187.864 441.365 186.834L239.401 123.283C238.814 123.099 238.186 123.099 237.6 123.283L35.6352 186.834C32.3608 187.864 33.1034 192.696 36.536 192.695Z" fill="#D6F9F9"/>
<path d="M279.21 135.81L239.4 123.283C238.814 123.099 238.186 123.099 237.599 123.283L35.6351 186.834C32.3608 187.864 33.1033 192.696 36.5359 192.696L51.0905 192.694C51.3963 192.694 51.7003 192.647 51.992 192.555L78.8764 184.083M299.165 142.089L441.365 186.834C444.639 187.864 443.897 192.696 440.464 192.695L425.909 192.694C425.604 192.694 425.3 192.647 425.008 192.555L239.402 134.06C238.815 133.875 238.185 133.875 237.598 134.06L99.9989 177.426" stroke="#627E8C" stroke-width="2" stroke-linecap="round"/>
<path d="M870.381 106.969C868.333 110.016 868.761 114.649 870.603 118.495C871.929 121.261 876.789 125.498 884.345 129.947C887.268 132.433 896.8 135.915 898.209 136.257C903.525 137.551 908.791 136.79 909.998 134.995C911.205 133.2 912.895 130.687 912.882 128.072C912.874 126.471 911.319 124.702 910.082 123.015C909.298 121.946 908.641 120.91 908.586 119.97C908.534 119.091 907.843 117.777 906.662 116.244C906.103 115.517 905.433 114.741 904.669 113.939C902.604 111.768 899.851 109.404 896.729 107.305C891.361 103.696 883.786 103.281 880.669 103.525C876.127 103.88 872.137 104.358 870.381 106.969Z" fill="#B8E05C"/>
<path d="M870.381 106.969C868.333 110.016 875.799 107.235 880 106.5C892.091 104.384 902.837 112 906.5 120.5C906.662 123.015 910.614 129 912.5 129C913.5 129 911.319 124.702 910.082 123.015C909.298 121.946 908.641 120.91 908.586 119.97C908.534 119.091 907.843 117.777 906.662 116.244C906.103 115.517 905.433 114.741 904.669 113.939C902.604 111.768 899.851 109.404 896.729 107.305C891.361 103.696 883.786 103.281 880.669 103.525C876.127 103.88 872.137 104.358 870.381 106.969Z" fill="white"/>
<path d="M870.381 106.969C868.333 110.016 868.761 114.649 870.603 118.495C871.929 121.261 876.789 125.498 884.345 129.947C887.268 132.433 896.8 135.915 898.209 136.257C903.525 137.551 908.791 136.79 909.998 134.995C911.205 133.2 912.895 130.687 912.882 128.072C912.874 126.471 911.319 124.702 910.082 123.015C909.298 121.946 908.641 120.91 908.586 119.97C908.534 119.091 907.843 117.777 906.662 116.244C906.103 115.517 905.433 114.741 904.669 113.939C902.604 111.768 899.851 109.404 896.729 107.305C891.361 103.696 883.786 103.281 880.669 103.525C876.127 103.88 872.137 104.358 870.381 106.969Z" stroke="#627E8C" stroke-width="2"/>
<path d="M1022.43 138.107C1023.69 141.555 1027.69 143.935 1031.88 144.706C1034.9 145.262 1041.19 143.823 1049.23 140.33C1052.96 139.429 1061.38 133.767 1062.49 132.83C1066.66 129.291 1069.14 124.585 1068.4 122.553C1067.66 120.521 1066.62 117.677 1064.5 116.149C1063.2 115.213 1060.85 115.43 1058.76 115.438C1057.44 115.444 1056.21 115.365 1055.42 114.857C1054.68 114.382 1053.21 114.169 1051.27 114.221C1050.36 114.247 1049.34 114.331 1048.24 114.477C1045.27 114.87 1041.74 115.707 1038.2 116.997C1032.13 119.215 1027.33 125.097 1025.7 127.761C1023.31 131.643 1021.35 135.15 1022.43 138.107Z" fill="#B8E05C"/>
<path d="M1022.43 138.107C1023.69 141.555 1025.84 133.882 1027.71 130.052C1033.11 119.029 1045.59 114.818 1054.62 116.856C1056.75 118.204 1063.91 118.529 1065.02 117.004C1065.61 116.195 1060.85 115.43 1058.76 115.438C1057.44 115.444 1056.21 115.365 1055.42 114.857C1054.68 114.382 1053.21 114.169 1051.27 114.221C1050.36 114.247 1049.34 114.331 1048.24 114.477C1045.27 114.87 1041.74 115.707 1038.2 116.997C1032.13 119.215 1027.33 125.097 1025.7 127.761C1023.31 131.643 1021.35 135.15 1022.43 138.107Z" fill="white"/>
<path d="M1022.43 138.107C1023.69 141.555 1027.69 143.935 1031.88 144.706C1034.9 145.262 1041.19 143.823 1049.23 140.33C1052.96 139.429 1061.38 133.767 1062.49 132.83C1066.66 129.291 1069.14 124.585 1068.4 122.553C1067.66 120.521 1066.62 117.677 1064.5 116.149C1063.2 115.213 1060.85 115.43 1058.76 115.438C1057.44 115.444 1056.21 115.365 1055.42 114.857C1054.68 114.382 1053.21 114.169 1051.27 114.221C1050.36 114.247 1049.34 114.331 1048.24 114.477C1045.27 114.87 1041.74 115.707 1038.2 116.997C1032.13 119.215 1027.33 125.097 1025.7 127.761C1023.31 131.643 1021.35 135.15 1022.43 138.107Z" stroke="#627E8C" stroke-width="2"/>
<path d="M1002.06 133.125C1005.16 135.104 1009.78 134.571 1013.58 132.641C1016.32 131.253 1020.44 126.298 1024.72 118.643C1027.14 115.665 1030.4 106.055 1030.71 104.64C1031.88 99.295 1031 94.0482 1029.18 92.8823C1027.36 91.7163 1024.81 90.084 1022.2 90.1564C1020.59 90.2007 1018.86 91.795 1017.2 93.0703C1016.15 93.8784 1015.13 94.5584 1014.19 94.6351C1013.32 94.7068 1012.02 95.4278 1010.51 96.6428C1009.8 97.2189 1009.04 97.906 1008.25 98.6875C1006.13 100.802 1003.83 103.608 1001.8 106.777C998.314 112.225 998.071 119.808 998.386 122.918C998.844 127.451 999.412 131.429 1002.06 133.125Z" fill="#B8E05C"/>
<path d="M1002.06 133.125C1005.16 135.104 1002.21 127.703 1001.38 123.52C998.986 111.48 1006.36 100.563 1014.77 96.7086C1017.28 96.4891 1023.17 92.4025 1023.13 90.5171C1023.11 89.5174 1018.86 91.795 1017.2 93.0703C1016.15 93.8784 1015.13 94.5584 1014.19 94.635C1013.32 94.7068 1012.02 95.4278 1010.51 96.6428C1009.8 97.2189 1009.04 97.906 1008.25 98.6875C1006.13 100.802 1003.83 103.608 1001.8 106.777C998.314 112.225 998.071 119.808 998.386 122.918C998.844 127.451 999.412 131.429 1002.06 133.125Z" fill="white"/>
<path d="M1002.06 133.125C1005.16 135.104 1009.78 134.571 1013.58 132.641C1016.32 131.253 1020.44 126.298 1024.72 118.643C1027.14 115.665 1030.4 106.055 1030.71 104.64C1031.88 99.295 1031 94.0482 1029.18 92.8823C1027.36 91.7163 1024.81 90.084 1022.2 90.1564C1020.59 90.2007 1018.86 91.795 1017.2 93.0703C1016.15 93.8784 1015.13 94.5584 1014.19 94.6351C1013.32 94.7068 1012.02 95.4278 1010.51 96.6428C1009.8 97.2189 1009.04 97.906 1008.25 98.6875C1006.13 100.802 1003.83 103.608 1001.8 106.777C998.314 112.225 998.071 119.808 998.386 122.918C998.844 127.451 999.412 131.429 1002.06 133.125Z" stroke="#627E8C" stroke-width="2"/>
<path d="M969.254 203.741C971.628 206.542 976.202 207.392 980.405 206.666C983.428 206.144 988.828 202.622 995.167 196.563C998.355 194.428 1004.3 186.204 1005.01 184.942C1007.71 180.179 1008.41 174.905 1007.01 173.255C1005.61 171.605 1003.65 169.294 1001.13 168.595C999.592 168.166 997.466 169.18 995.506 169.911C994.264 170.374 993.088 170.724 992.169 170.521C991.309 170.332 989.857 170.639 988.06 171.358C987.208 171.698 986.279 172.131 985.299 172.647C982.647 174.043 979.624 176.049 976.754 178.481C971.819 182.663 969.357 189.839 968.742 192.904C967.847 197.371 967.22 201.34 969.254 203.741Z" fill="#B8E05C"/>
<path d="M969.254 203.741C971.628 206.542 970.986 198.601 971.423 194.358C972.68 182.148 982.935 173.882 992.111 172.673C994.574 173.202 1001.41 171.03 1001.92 169.215C1002.2 168.253 997.466 169.18 995.506 169.911C994.264 170.374 993.088 170.724 992.169 170.521C991.309 170.332 989.857 170.639 988.06 171.358C987.208 171.698 986.279 172.131 985.299 172.647C982.647 174.043 979.624 176.049 976.754 178.481C971.819 182.663 969.357 189.839 968.742 192.904C967.847 197.371 967.22 201.34 969.254 203.741Z" fill="white"/>
<path d="M969.254 203.741C971.628 206.542 976.202 207.392 980.405 206.666C983.428 206.144 988.828 202.622 995.167 196.563C998.355 194.428 1004.3 186.204 1005.01 184.942C1007.71 180.179 1008.41 174.905 1007.01 173.255C1005.61 171.605 1003.65 169.294 1001.13 168.595C999.592 168.166 997.466 169.18 995.506 169.911C994.264 170.374 993.088 170.724 992.169 170.521C991.309 170.332 989.857 170.639 988.06 171.358C987.208 171.698 986.279 172.131 985.299 172.647C982.647 174.043 979.624 176.049 976.754 178.481C971.819 182.663 969.357 189.839 968.742 192.904C967.847 197.371 967.22 201.34 969.254 203.741Z" stroke="#627E8C" stroke-width="2"/>
<path d="M982.238 76.2796C978.585 75.9136 974.703 78.4797 972.185 81.9211C970.373 84.3967 968.935 90.6819 968.584 99.443C967.774 103.194 969.21 113.24 969.573 114.643C970.945 119.94 974.104 124.222 976.256 124.437C978.408 124.653 981.422 124.955 983.72 123.707C985.128 122.944 985.952 120.738 986.855 118.85C987.426 117.654 988.029 116.586 988.831 116.093C989.581 115.633 990.412 114.402 991.206 112.638C991.582 111.801 991.95 110.844 992.296 109.792C993.234 106.945 994.016 103.403 994.391 99.6593C995.035 93.223 991.822 86.3508 990.134 83.7193C987.675 79.8837 985.369 76.5932 982.238 76.2796Z" fill="#B8E05C"/>
<path d="M982.238 76.2796C978.585 75.9136 984.563 81.1802 987.195 84.535C994.774 94.1915 993.139 107.261 987.378 114.505C985.239 115.836 981.831 122.147 982.722 123.81C983.194 124.691 985.952 120.738 986.855 118.85C987.426 117.654 988.029 116.586 988.831 116.093C989.581 115.633 990.412 114.402 991.206 112.638C991.582 111.801 991.95 110.844 992.296 109.792C993.234 106.945 994.016 103.403 994.391 99.6593C995.035 93.223 991.822 86.3508 990.134 83.7193C987.675 79.8837 985.369 76.5932 982.238 76.2796Z" fill="white"/>
<path d="M982.238 76.2796C978.585 75.9136 974.703 78.4797 972.185 81.9211C970.373 84.3967 968.935 90.6819 968.584 99.443C967.774 103.194 969.21 113.24 969.573 114.643C970.945 119.94 974.104 124.222 976.256 124.437C978.408 124.653 981.422 124.955 983.72 123.707C985.128 122.944 985.952 120.738 986.855 118.85C987.426 117.654 988.029 116.586 988.831 116.093C989.581 115.633 990.412 114.402 991.206 112.638C991.582 111.801 991.95 110.844 992.296 109.792C993.234 106.945 994.016 103.403 994.391 99.6593C995.035 93.223 991.822 86.3508 990.134 83.7193C987.675 79.8837 985.369 76.5932 982.238 76.2796Z" stroke="#627E8C" stroke-width="2"/>
<path d="M912.493 147.472C910.191 150.332 910.22 154.985 911.726 158.974C912.81 161.845 917.288 166.483 924.435 171.563C927.133 174.291 936.333 178.577 937.706 179.039C942.892 180.784 948.204 180.478 949.56 178.793C950.917 177.108 952.816 174.749 953.027 172.143C953.157 170.547 951.76 168.651 950.671 166.864C949.982 165.731 949.417 164.643 949.442 163.702C949.466 162.822 948.89 161.454 947.845 159.825C947.35 159.053 946.749 158.222 946.057 157.357C944.186 155.017 941.646 152.426 938.715 150.067C933.677 146.01 926.165 144.947 923.039 144.923C918.483 144.888 914.467 145.021 912.493 147.472Z" fill="#B8E05C"/>
<path d="M912.493 147.472C910.191 150.332 917.868 148.202 922.117 147.83C934.345 146.759 944.398 155.269 947.318 164.051C947.264 166.57 950.688 172.873 952.567 173.035C953.563 173.12 951.76 168.651 950.671 166.864C949.982 165.731 949.417 164.643 949.442 163.702C949.466 162.822 948.89 161.454 947.845 159.825C947.35 159.053 946.749 158.222 946.057 157.357C944.186 155.017 941.646 152.426 938.715 150.067C933.677 146.01 926.165 144.947 923.039 144.923C918.483 144.888 914.467 145.021 912.493 147.472Z" fill="white"/>
<path d="M912.493 147.472C910.191 150.332 910.22 154.985 911.726 158.974C912.81 161.845 917.288 166.483 924.435 171.563C927.133 174.291 936.333 178.577 937.706 179.039C942.892 180.784 948.204 180.478 949.56 178.793C950.917 177.108 952.816 174.749 953.027 172.143C953.157 170.547 951.76 168.651 950.671 166.864C949.982 165.731 949.417 164.643 949.442 163.702C949.466 162.822 948.89 161.454 947.845 159.825C947.35 159.053 946.749 158.222 946.057 157.357C944.186 155.017 941.646 152.426 938.715 150.067C933.677 146.01 926.165 144.947 923.039 144.923C918.483 144.888 914.467 145.021 912.493 147.472Z" stroke="#627E8C" stroke-width="2"/>
<path d="M908.183 86.4658C904.758 87.7884 902.453 91.8303 901.76 96.0381C901.26 99.065 902.815 105.322 906.457 113.298C907.427 117.011 913.244 125.327 914.201 126.415C917.817 130.522 922.568 132.917 924.586 132.137C926.604 131.358 929.429 130.267 930.917 128.116C931.828 126.8 931.568 124.459 931.521 122.367C931.491 121.042 931.547 119.817 932.04 119.015C932.501 118.265 932.687 116.792 932.599 114.86C932.557 113.943 932.453 112.923 932.287 111.828C931.839 108.865 930.937 105.351 929.582 101.841C927.251 95.807 921.281 91.1258 918.588 89.5395C914.662 87.2273 911.119 85.3322 908.183 86.4658Z" fill="#B8E05C"/>
<path d="M908.183 86.4658C904.758 87.7884 912.47 89.789 916.334 91.594C927.455 96.7894 931.897 109.19 930.026 118.254C928.719 120.408 928.526 127.578 930.072 128.658C930.891 129.231 931.568 124.459 931.521 122.367C931.491 121.042 931.547 119.817 932.04 119.015C932.501 118.265 932.687 116.792 932.599 114.86C932.557 113.943 932.453 112.923 932.287 111.828C931.839 108.865 930.937 105.351 929.582 101.841C927.251 95.807 921.281 91.1258 918.588 89.5395C914.662 87.2273 911.119 85.3322 908.183 86.4658Z" fill="white"/>
<path d="M908.183 86.4658C904.758 87.7884 902.453 91.8303 901.76 96.0381C901.26 99.065 902.815 105.322 906.457 113.298C907.427 117.011 913.244 125.327 914.201 126.415C917.817 130.522 922.568 132.917 924.586 132.137C926.604 131.358 929.429 130.267 930.917 128.116C931.828 126.8 931.568 124.459 931.521 122.367C931.491 121.042 931.547 119.817 932.04 119.015C932.501 118.265 932.687 116.792 932.599 114.86C932.557 113.943 932.453 112.923 932.287 111.828C931.839 108.865 930.937 105.351 929.582 101.841C927.251 95.807 921.281 91.1258 918.588 89.5395C914.662 87.2273 911.119 85.3322 908.183 86.4658Z" stroke="#627E8C" stroke-width="2"/>
<path d="M942.045 81.3096C938.533 82.3768 935.937 86.2384 934.936 90.3838C934.215 93.3659 935.306 99.7205 938.352 107.943C939.046 111.717 944.236 120.438 945.111 121.593C948.415 125.955 952.977 128.692 955.047 128.063C957.117 127.434 960.014 126.554 961.657 124.518C962.662 123.272 962.575 120.919 962.682 118.829C962.749 117.505 962.895 116.288 963.445 115.524C963.96 114.81 964.255 113.355 964.308 111.421C964.334 110.504 964.305 109.479 964.22 108.375C963.991 105.387 963.35 101.816 962.256 98.2162C960.376 92.027 954.766 86.9197 952.196 85.1396C948.45 82.5452 945.056 80.3947 942.045 81.3096Z" fill="#B8E05C"/>
<path d="M942.045 81.3096C938.533 82.3768 946.076 84.9388 949.797 87.0229C960.507 93.0217 964.025 105.715 961.493 114.617C960.031 116.669 959.312 123.805 960.774 124.997C961.549 125.629 962.575 120.919 962.682 118.829C962.749 117.505 962.895 116.288 963.445 115.524C963.96 114.811 964.255 113.355 964.308 111.421C964.334 110.504 964.305 109.479 964.22 108.375C963.991 105.387 963.35 101.816 962.256 98.2162C960.376 92.027 954.766 86.9197 952.196 85.1396C948.45 82.5452 945.056 80.3947 942.045 81.3096Z" fill="white"/>
<path d="M942.045 81.3096C938.533 82.3768 935.937 86.2384 934.936 90.3838C934.215 93.3659 935.306 99.7205 938.352 107.943C939.046 111.717 944.236 120.438 945.111 121.593C948.415 125.955 952.977 128.692 955.047 128.063C957.117 127.434 960.014 126.554 961.657 124.518C962.662 123.272 962.575 120.919 962.682 118.829C962.749 117.505 962.895 116.288 963.445 115.524C963.96 114.81 964.255 113.355 964.308 111.421C964.334 110.504 964.305 109.479 964.22 108.375C963.991 105.387 963.35 101.816 962.256 98.2162C960.376 92.027 954.766 86.9197 952.196 85.1396C948.45 82.5452 945.056 80.3947 942.045 81.3096Z" stroke="#627E8C" stroke-width="2"/>
<path d="M961.5 368C958.333 343 953.9 273.5 961.5 247.5C964.299 237.926 965.466 226.068 965.665 214M961.5 160.5C962.631 166.986 963.923 176.615 964.771 187.5M961.5 160.5C954.077 157.444 940.934 149.639 930.5 137.425M961.5 160.5C970.675 156.65 984.383 149.82 996 141.733M961.5 160.5C963.764 155.973 967.027 148.632 970.195 140M917.5 114.5C920.26 123.333 925.004 130.99 930.5 137.425M1018 114.5C1017.8 123.653 1008.02 133.366 996 141.733M965.665 214C967.777 213.667 972.7 209.5 975.5 195.5M965.665 214C965.814 204.997 965.424 195.877 964.771 187.5M964.771 187.5C956.347 183.334 937.7 172.1 930.5 160.5M930.5 137.425C922 137.45 901.4 132.9 887 114.5M996 141.733C1002.5 144.322 1024 151.425 1042 137.425M980 99.5002C979.059 112.68 974.724 127.66 970.195 140M970.195 140C963.63 138.667 950.4 129.6 950 104" stroke="#627E8C" stroke-width="2" stroke-linecap="round"/>
<path d="M420.626 189.423C419.141 191.631 419.451 194.99 420.787 197.778C421.748 199.783 425.271 202.855 430.748 206.079C432.867 207.882 439.777 210.405 440.798 210.654C444.652 211.592 448.469 211.04 449.344 209.739C450.219 208.438 451.443 206.616 451.434 204.72C451.428 203.56 450.301 202.277 449.404 201.054C448.836 200.279 448.36 199.528 448.32 198.847C448.283 198.21 447.781 197.258 446.926 196.147C446.52 195.62 446.035 195.057 445.481 194.475C443.984 192.901 441.988 191.188 439.725 189.667C435.834 187.05 430.343 186.75 428.084 186.926C424.791 187.184 421.899 187.53 420.626 189.423Z" fill="#B8E05C"/>
<path d="M420.626 189.423C419.141 191.631 424.553 189.616 427.598 189.083C436.363 187.549 444.153 193.07 446.808 199.232C446.926 201.054 449.79 205.393 451.157 205.393C451.882 205.393 450.301 202.277 449.404 201.054C448.836 200.279 448.36 199.528 448.32 198.847C448.283 198.21 447.781 197.258 446.926 196.147C446.52 195.62 446.035 195.057 445.481 194.475C443.984 192.901 441.988 191.188 439.725 189.667C435.834 187.05 430.343 186.75 428.084 186.926C424.791 187.184 421.899 187.53 420.626 189.423Z" fill="white"/>
<path d="M420.626 189.423C419.141 191.631 419.451 194.99 420.787 197.778C421.748 199.783 425.271 202.855 430.748 206.079C432.867 207.882 439.777 210.405 440.798 210.654C444.652 211.592 448.469 211.04 449.344 209.739C450.219 208.438 451.443 206.616 451.434 204.72C451.428 203.56 450.301 202.277 449.404 201.054C448.836 200.279 448.36 199.528 448.32 198.847C448.283 198.21 447.781 197.258 446.926 196.147C446.52 195.62 446.035 195.057 445.481 194.475C443.984 192.901 441.988 191.188 439.725 189.667C435.834 187.05 430.343 186.75 428.084 186.926C424.791 187.184 421.899 187.53 420.626 189.423Z" stroke="#627E8C" stroke-width="2"/>
<path d="M530.847 211.994C531.76 214.494 534.658 216.219 537.699 216.779C539.886 217.181 544.442 216.139 550.271 213.606C552.975 212.953 559.081 208.849 559.882 208.169C562.908 205.604 564.707 202.193 564.169 200.72C563.631 199.247 562.879 197.185 561.34 196.077C560.398 195.399 558.698 195.556 557.181 195.562C556.221 195.566 555.333 195.509 554.759 195.141C554.222 194.797 553.157 194.642 551.754 194.68C551.09 194.698 550.349 194.76 549.553 194.865C547.4 195.151 544.84 195.757 542.279 196.692C537.874 198.3 534.401 202.564 533.215 204.495C531.486 207.309 530.065 209.852 530.847 211.994Z" fill="#B8E05C"/>
<path d="M530.847 211.994C531.76 214.494 533.313 208.932 534.674 206.156C538.589 198.165 547.635 195.113 554.18 196.59C555.723 197.567 560.917 197.803 561.721 196.697C562.148 196.111 558.698 195.556 557.181 195.562C556.221 195.566 555.333 195.509 554.759 195.141C554.222 194.797 553.157 194.642 551.754 194.68C551.09 194.698 550.349 194.76 549.553 194.865C547.4 195.151 544.84 195.757 542.279 196.692C537.874 198.3 534.401 202.564 533.215 204.495C531.486 207.309 530.065 209.852 530.847 211.994Z" fill="white"/>
<path d="M530.847 211.994C531.76 214.494 534.658 216.219 537.699 216.779C539.886 217.181 544.442 216.139 550.271 213.606C552.975 212.953 559.081 208.849 559.882 208.169C562.908 205.604 564.707 202.193 564.169 200.72C563.631 199.247 562.879 197.185 561.34 196.077C560.398 195.399 558.698 195.556 557.181 195.562C556.221 195.566 555.333 195.509 554.759 195.141C554.222 194.797 553.157 194.642 551.754 194.68C551.09 194.698 550.349 194.76 549.553 194.865C547.4 195.151 544.84 195.757 542.279 196.692C537.874 198.3 534.401 202.564 533.215 204.495C531.486 207.309 530.065 209.852 530.847 211.994Z" stroke="#627E8C" stroke-width="2"/>
<path d="M516.081 208.383C518.323 209.818 521.674 209.431 524.43 208.033C526.414 207.026 529.404 203.434 532.504 197.886C534.258 195.726 536.624 188.761 536.849 187.734C537.699 183.86 537.061 180.057 535.74 179.212C534.419 178.366 532.57 177.183 530.675 177.236C529.515 177.268 528.258 178.423 527.056 179.348C526.294 179.934 525.554 180.426 524.874 180.482C524.238 180.534 523.298 181.057 522.206 181.937C521.688 182.355 521.137 182.853 520.568 183.42C519.028 184.952 517.361 186.986 515.891 189.283C513.364 193.233 513.188 198.73 513.416 200.984C513.748 204.27 514.16 207.154 516.081 208.383Z" fill="#B8E05C"/>
<path d="M516.081 208.383C518.323 209.818 516.185 204.453 515.583 201.42C513.851 192.693 519.193 184.779 525.293 181.985C527.112 181.826 531.385 178.864 531.354 177.497C531.338 176.772 528.258 178.423 527.056 179.348C526.294 179.934 525.554 180.426 524.874 180.482C524.238 180.534 523.298 181.057 522.206 181.937C521.688 182.355 521.137 182.853 520.568 183.42C519.028 184.952 517.361 186.986 515.891 189.283C513.364 193.233 513.188 198.73 513.416 200.984C513.748 204.27 514.16 207.154 516.081 208.383Z" fill="white"/>
<path d="M516.081 208.383C518.323 209.818 521.674 209.431 524.43 208.033C526.414 207.026 529.404 203.434 532.504 197.886C534.258 195.726 536.624 188.761 536.849 187.734C537.699 183.86 537.061 180.057 535.74 179.212C534.419 178.366 532.57 177.183 530.675 177.236C529.515 177.268 528.258 178.423 527.056 179.348C526.294 179.934 525.554 180.426 524.874 180.482C524.238 180.534 523.298 181.057 522.206 181.937C521.688 182.355 521.137 182.853 520.568 183.42C519.028 184.952 517.361 186.986 515.891 189.283C513.364 193.233 513.188 198.73 513.416 200.984C513.748 204.27 514.16 207.154 516.081 208.383Z" stroke="#627E8C" stroke-width="2"/>
<path d="M492.299 259.572C494.019 261.603 497.335 262.219 500.382 261.693C502.573 261.315 506.488 258.761 511.082 254.369C513.394 252.822 517.704 246.86 518.221 245.945C520.173 242.492 520.682 238.67 519.668 237.473C518.654 236.277 517.235 234.602 515.408 234.095C514.29 233.784 512.749 234.519 511.328 235.049C510.428 235.385 509.576 235.639 508.909 235.492C508.286 235.354 507.233 235.577 505.931 236.098C505.313 236.345 504.64 236.659 503.929 237.033C502.007 238.045 499.815 239.498 497.735 241.262C494.157 244.293 492.373 249.495 491.927 251.717C491.279 254.955 490.824 257.832 492.299 259.572Z" fill="#B8E05C"/>
<path d="M492.299 259.572C494.019 261.603 493.554 255.846 493.871 252.771C494.782 243.92 502.216 237.928 508.867 237.052C510.653 237.435 515.608 235.86 515.981 234.545C516.178 233.847 512.749 234.519 511.328 235.049C510.428 235.385 509.576 235.639 508.909 235.492C508.286 235.354 507.233 235.577 505.931 236.098C505.313 236.345 504.64 236.659 503.929 237.033C502.007 238.045 499.815 239.498 497.735 241.262C494.157 244.293 492.373 249.495 491.927 251.717C491.279 254.955 490.824 257.832 492.299 259.572Z" fill="white"/>
<path d="M492.299 259.572C494.019 261.603 497.335 262.219 500.382 261.693C502.573 261.315 506.488 258.761 511.082 254.369C513.394 252.822 517.704 246.86 518.221 245.945C520.173 242.492 520.682 238.67 519.668 237.473C518.654 236.277 517.235 234.602 515.408 234.095C514.29 233.784 512.749 234.519 511.328 235.049C510.428 235.385 509.576 235.639 508.909 235.492C508.286 235.354 507.233 235.577 505.931 236.098C505.313 236.345 504.64 236.659 503.929 237.033C502.007 238.045 499.815 239.498 497.735 241.262C494.157 244.293 492.373 249.495 491.927 251.717C491.279 254.955 490.824 257.832 492.299 259.572Z" stroke="#627E8C" stroke-width="2"/>
<path d="M501.71 167.176C499.062 166.911 496.248 168.771 494.422 171.266C493.109 173.06 492.067 177.616 491.813 183.967C491.225 186.686 492.266 193.969 492.53 194.986C493.524 198.826 495.814 201.929 497.374 202.086C498.934 202.242 501.118 202.461 502.785 201.557C503.805 201.003 504.403 199.404 505.057 198.036C505.471 197.169 505.908 196.394 506.489 196.037C507.033 195.703 507.636 194.811 508.211 193.532C508.484 192.925 508.75 192.232 509.001 191.469C509.681 189.406 510.248 186.838 510.52 184.124C510.987 179.458 508.657 174.477 507.434 172.569C505.651 169.789 503.98 167.404 501.71 167.176Z" fill="#B8E05C"/>
<path d="M501.71 167.176C499.062 166.911 503.395 170.729 505.304 173.161C510.797 180.161 509.612 189.635 505.436 194.886C503.886 195.851 501.415 200.426 502.061 201.631C502.403 202.269 504.403 199.404 505.057 198.036C505.471 197.169 505.908 196.394 506.489 196.037C507.033 195.703 507.636 194.811 508.211 193.532C508.484 192.925 508.75 192.232 509.001 191.469C509.681 189.406 510.248 186.838 510.52 184.124C510.987 179.458 508.657 174.477 507.434 172.569C505.651 169.789 503.98 167.404 501.71 167.176Z" fill="white"/>
<path d="M501.71 167.176C499.062 166.911 496.248 168.771 494.422 171.266C493.109 173.06 492.067 177.616 491.813 183.967C491.225 186.686 492.266 193.969 492.53 194.986C493.524 198.826 495.814 201.929 497.374 202.086C498.934 202.242 501.118 202.461 502.785 201.557C503.805 201.003 504.403 199.404 505.057 198.036C505.471 197.169 505.908 196.394 506.489 196.037C507.033 195.703 507.636 194.811 508.211 193.532C508.484 192.925 508.75 192.232 509.001 191.469C509.681 189.406 510.248 186.838 510.52 184.124C510.987 179.458 508.657 174.477 507.434 172.569C505.651 169.789 503.98 167.404 501.71 167.176Z" stroke="#627E8C" stroke-width="2"/>
<path d="M451.153 218.783C449.484 220.856 449.505 224.229 450.597 227.121C451.382 229.202 454.629 232.564 459.809 236.247C461.765 238.224 468.434 241.331 469.429 241.666C473.189 242.931 477.039 242.709 478.022 241.488C479.006 240.266 480.382 238.556 480.536 236.667C480.629 235.51 479.617 234.136 478.828 232.84C478.328 232.019 477.918 231.23 477.937 230.548C477.954 229.911 477.536 228.919 476.779 227.738C476.42 227.178 475.985 226.576 475.483 225.949C474.126 224.252 472.285 222.375 470.161 220.664C466.508 217.724 461.063 216.953 458.797 216.936C455.494 216.91 452.583 217.007 451.153 218.783Z" fill="#B8E05C"/>
<path d="M451.153 218.783C449.484 220.856 455.049 219.313 458.129 219.043C466.993 218.266 474.28 224.435 476.397 230.802C476.358 232.628 478.84 237.196 480.202 237.314C480.924 237.376 479.617 234.136 478.828 232.84C478.328 232.019 477.918 231.23 477.937 230.548C477.954 229.911 477.536 228.919 476.779 227.738C476.42 227.178 475.985 226.576 475.483 225.949C474.126 224.252 472.285 222.375 470.161 220.664C466.508 217.724 461.063 216.953 458.797 216.936C455.494 216.91 452.583 217.007 451.153 218.783Z" fill="white"/>
<path d="M451.153 218.783C449.484 220.856 449.505 224.229 450.597 227.121C451.382 229.202 454.629 232.564 459.809 236.247C461.765 238.224 468.434 241.331 469.429 241.666C473.189 242.931 477.039 242.709 478.022 241.488C479.006 240.266 480.382 238.556 480.536 236.667C480.629 235.51 479.617 234.136 478.828 232.84C478.328 232.019 477.918 231.23 477.937 230.548C477.954 229.911 477.536 228.919 476.779 227.738C476.42 227.178 475.985 226.576 475.483 225.949C474.126 224.252 472.285 222.375 470.161 220.664C466.508 217.724 461.063 216.953 458.797 216.936C455.494 216.91 452.583 217.007 451.153 218.783Z" stroke="#627E8C" stroke-width="2"/>
<path d="M448.028 174.56C445.546 175.519 443.875 178.449 443.372 181.499C443.01 183.693 444.137 188.229 446.777 194.011C447.48 196.702 451.697 202.731 452.391 203.519C455.012 206.497 458.456 208.232 459.919 207.667C461.381 207.103 463.429 206.312 464.508 204.753C465.168 203.798 464.98 202.102 464.946 200.585C464.924 199.625 464.965 198.736 465.322 198.155C465.656 197.612 465.791 196.544 465.727 195.143C465.697 194.478 465.621 193.739 465.501 192.945C465.176 190.797 464.523 188.25 463.54 185.706C461.851 181.332 457.523 177.938 455.571 176.788C452.725 175.112 450.156 173.739 448.028 174.56Z" fill="#B8E05C"/>
<path d="M448.028 174.56C445.546 175.519 451.136 176.969 453.937 178.278C461.999 182.044 465.218 191.033 463.862 197.604C462.914 199.165 462.775 204.362 463.895 205.146C464.489 205.561 464.98 202.102 464.946 200.585C464.924 199.625 464.965 198.736 465.322 198.155C465.656 197.612 465.791 196.544 465.727 195.143C465.697 194.478 465.621 193.739 465.501 192.945C465.176 190.797 464.523 188.25 463.54 185.706C461.851 181.332 457.523 177.938 455.571 176.788C452.725 175.112 450.156 173.739 448.028 174.56Z" fill="white"/>
<path d="M448.028 174.56C445.546 175.519 443.875 178.449 443.372 181.499C443.01 183.693 444.137 188.229 446.777 194.011C447.48 196.702 451.697 202.731 452.391 203.519C455.012 206.497 458.456 208.232 459.919 207.667C461.381 207.103 463.429 206.312 464.508 204.753C465.168 203.798 464.98 202.102 464.946 200.585C464.924 199.625 464.965 198.736 465.322 198.155C465.656 197.612 465.791 196.544 465.727 195.143C465.697 194.478 465.621 193.739 465.501 192.945C465.176 190.797 464.523 188.25 463.54 185.706C461.851 181.332 457.523 177.938 455.571 176.788C452.725 175.112 450.156 173.739 448.028 174.56Z" stroke="#627E8C" stroke-width="2"/>
<path d="M472.575 170.822C470.028 171.596 468.147 174.395 467.421 177.4C466.899 179.562 467.689 184.168 469.897 190.128C470.401 192.864 474.163 199.186 474.797 200.024C477.192 203.186 480.499 205.17 482 204.714C483.5 204.258 485.6 203.62 486.791 202.144C487.52 201.241 487.456 199.535 487.534 198.02C487.583 197.061 487.688 196.178 488.088 195.624C488.461 195.107 488.674 194.052 488.713 192.65C488.731 191.985 488.711 191.242 488.649 190.442C488.483 188.276 488.018 185.687 487.225 183.078C485.862 178.591 481.796 174.889 479.933 173.599C477.218 171.718 474.757 170.159 472.575 170.822Z" fill="#B8E05C"/>
<path d="M472.575 170.822C470.028 171.596 475.497 173.453 478.194 174.964C485.957 179.312 488.507 188.513 486.673 194.967C485.612 196.454 485.091 201.627 486.151 202.491C486.713 202.949 487.456 199.535 487.534 198.02C487.583 197.061 487.688 196.178 488.088 195.624C488.461 195.107 488.674 194.052 488.713 192.65C488.731 191.985 488.711 191.242 488.649 190.442C488.483 188.276 488.018 185.687 487.225 183.078C485.862 178.591 481.796 174.889 479.933 173.599C477.218 171.718 474.757 170.159 472.575 170.822Z" fill="white"/>
<path d="M472.575 170.822C470.028 171.596 468.147 174.395 467.421 177.4C466.899 179.562 467.689 184.168 469.897 190.128C470.401 192.864 474.163 199.186 474.797 200.024C477.192 203.186 480.499 205.17 482 204.714C483.5 204.258 485.6 203.62 486.791 202.144C487.52 201.241 487.456 199.535 487.534 198.02C487.583 197.061 487.688 196.178 488.088 195.624C488.461 195.107 488.674 194.052 488.713 192.65C488.731 191.985 488.711 191.242 488.649 190.442C488.483 188.276 488.018 185.687 487.225 183.078C485.862 178.591 481.796 174.889 479.933 173.599C477.218 171.718 474.757 170.159 472.575 170.822Z" stroke="#627E8C" stroke-width="2"/>
<path d="M486.678 369.22C484.382 351.097 481.168 310.141 486.678 291.293C488.706 284.353 489.552 275.757 489.697 267.009M486.678 228.227C487.497 232.929 488.434 239.909 489.048 247.8M486.678 228.227C481.296 226.012 471.769 220.354 464.206 211.5M486.678 228.227C493.328 225.436 503.266 220.486 511.686 214.623M486.678 228.227C488.319 224.945 490.684 219.625 492.981 213.367M454.782 194.882C456.783 201.285 460.222 206.836 464.206 211.5M527.634 194.882C527.487 201.517 520.398 208.558 511.686 214.623M489.697 267.009C491.227 266.768 494.796 263.747 496.826 253.599M489.697 267.009C489.804 260.483 489.522 253.872 489.048 247.8M489.048 247.8C482.942 244.779 469.425 236.636 464.206 228.227M464.206 211.5C458.044 211.518 443.111 208.22 432.673 194.882M511.686 214.623C516.398 216.5 531.983 221.649 545.032 211.5M500.088 184.009C499.406 193.563 496.264 204.422 492.981 213.367M492.981 213.367C488.222 212.401 478.631 205.828 478.341 187.271" stroke="#627E8C" stroke-width="2" stroke-linecap="round"/>
<defs>
<filter id="filter0_d" x="573" y="107.007" width="4" height="195" filterUnits="userSpaceOnUse" color-interpolation-filters="sRGB">
<feFlood flood-opacity="0" result="BackgroundImageFix"/>
<feColorMatrix in="SourceAlpha" type="matrix" values="0 0 0 0 0 0 0 0 0 0 0 0 0 0 0 0 0 0 127 0"/>
<feOffset dx="-1"/>
<feColorMatrix type="matrix" values="0 0 0 0 0.991667 0 0 0 0 0.915544 0 0 0 0 0.866288 0 0 0 1 0"/>
<feBlend mode="normal" in2="BackgroundImageFix" result="effect1_dropShadow"/>
<feBlend mode="normal" in="SourceGraphic" in2="effect1_dropShadow" result="shape"/>
</filter>
<filter id="filter1_d" x="529" y="107.007" width="4" height="195" filterUnits="userSpaceOnUse" color-interpolation-filters="sRGB">
<feFlood flood-opacity="0" result="BackgroundImageFix"/>
<feColorMatrix in="SourceAlpha" type="matrix" values="0 0 0 0 0 0 0 0 0 0 0 0 0 0 0 0 0 0 127 0"/>
<feOffset dx="-1"/>
<feColorMatrix type="matrix" values="0 0 0 0 0.991667 0 0 0 0 0.915544 0 0 0 0 0.866288 0 0 0 1 0"/>
<feBlend mode="normal" in2="BackgroundImageFix" result="effect1_dropShadow"/>
<feBlend mode="normal" in="SourceGraphic" in2="effect1_dropShadow" result="shape"/>
</filter>
<filter id="filter2_d" x="540" y="107.007" width="4" height="195" filterUnits="userSpaceOnUse" color-interpolation-filters="sRGB">
<feFlood flood-opacity="0" result="BackgroundImageFix"/>
<feColorMatrix in="SourceAlpha" type="matrix" values="0 0 0 0 0 0 0 0 0 0 0 0 0 0 0 0 0 0 127 0"/>
<feOffset dx="-1"/>
<feColorMatrix type="matrix" values="0 0 0 0 0.991667 0 0 0 0 0.915544 0 0 0 0 0.866288 0 0 0 1 0"/>
<feBlend mode="normal" in2="BackgroundImageFix" result="effect1_dropShadow"/>
<feBlend mode="normal" in="SourceGraphic" in2="effect1_dropShadow" result="shape"/>
</filter>
<filter id="filter3_d" x="551" y="107.007" width="4" height="195" filterUnits="userSpaceOnUse" color-interpolation-filters="sRGB">
<feFlood flood-opacity="0" result="BackgroundImageFix"/>
<feColorMatrix in="SourceAlpha" type="matrix" values="0 0 0 0 0 0 0 0 0 0 0 0 0 0 0 0 0 0 127 0"/>
<feOffset dx="-1"/>
<feColorMatrix type="matrix" values="0 0 0 0 0.991667 0 0 0 0 0.915544 0 0 0 0 0.866288 0 0 0 1 0"/>
<feBlend mode="normal" in2="BackgroundImageFix" result="effect1_dropShadow"/>
<feBlend mode="normal" in="SourceGraphic" in2="effect1_dropShadow" result="shape"/>
</filter>
<filter id="filter4_d" x="562" y="107.007" width="4" height="195" filterUnits="userSpaceOnUse" color-interpolation-filters="sRGB">
<feFlood flood-opacity="0" result="BackgroundImageFix"/>
<feColorMatrix in="SourceAlpha" type="matrix" values="0 0 0 0 0 0 0 0 0 0 0 0 0 0 0 0 0 0 127 0"/>
<feOffset dx="-1"/>
<feColorMatrix type="matrix" values="0 0 0 0 0.991667 0 0 0 0 0.915544 0 0 0 0 0.866288 0 0 0 1 0"/>
<feBlend mode="normal" in2="BackgroundImageFix" result="effect1_dropShadow"/>
<feBlend mode="normal" in="SourceGraphic" in2="effect1_dropShadow" result="shape"/>
</filter>
<filter id="filter5_d" x="628" y="107.007" width="4" height="201" filterUnits="userSpaceOnUse" color-interpolation-filters="sRGB">
<feFlood flood-opacity="0" result="BackgroundImageFix"/>
<feColorMatrix in="SourceAlpha" type="matrix" values="0 0 0 0 0 0 0 0 0 0 0 0 0 0 0 0 0 0 127 0"/>
<feOffset dx="-1"/>
<feColorMatrix type="matrix" values="0 0 0 0 0.991667 0 0 0 0 0.915544 0 0 0 0 0.866288 0 0 0 1 0"/>
<feBlend mode="normal" in2="BackgroundImageFix" result="effect1_dropShadow"/>
<feBlend mode="normal" in="SourceGraphic" in2="effect1_dropShadow" result="shape"/>
</filter>
<filter id="filter6_d" x="584" y="107.007" width="4" height="195" filterUnits="userSpaceOnUse" color-interpolation-filters="sRGB">
<feFlood flood-opacity="0" result="BackgroundImageFix"/>
<feColorMatrix in="SourceAlpha" type="matrix" values="0 0 0 0 0 0 0 0 0 0 0 0 0 0 0 0 0 0 127 0"/>
<feOffset dx="-1"/>
<feColorMatrix type="matrix" values="0 0 0 0 0.991667 0 0 0 0 0.915544 0 0 0 0 0.866288 0 0 0 1 0"/>
<feBlend mode="normal" in2="BackgroundImageFix" result="effect1_dropShadow"/>
<feBlend mode="normal" in="SourceGraphic" in2="effect1_dropShadow" result="shape"/>
</filter>
<filter id="filter7_d" x="595" y="107.007" width="4" height="195" filterUnits="userSpaceOnUse" color-interpolation-filters="sRGB">
<feFlood flood-opacity="0" result="BackgroundImageFix"/>
<feColorMatrix in="SourceAlpha" type="matrix" values="0 0 0 0 0 0 0 0 0 0 0 0 0 0 0 0 0 0 127 0"/>
<feOffset dx="-1"/>
<feColorMatrix type="matrix" values="0 0 0 0 0.991667 0 0 0 0 0.915544 0 0 0 0 0.866288 0 0 0 1 0"/>
<feBlend mode="normal" in2="BackgroundImageFix" result="effect1_dropShadow"/>
<feBlend mode="normal" in="SourceGraphic" in2="effect1_dropShadow" result="shape"/>
</filter>
<filter id="filter8_d" x="606" y="107.007" width="4" height="201" filterUnits="userSpaceOnUse" color-interpolation-filters="sRGB">
<feFlood flood-opacity="0" result="BackgroundImageFix"/>
<feColorMatrix in="SourceAlpha" type="matrix" values="0 0 0 0 0 0 0 0 0 0 0 0 0 0 0 0 0 0 127 0"/>
<feOffset dx="-1"/>
<feColorMatrix type="matrix" values="0 0 0 0 0.991667 0 0 0 0 0.915544 0 0 0 0 0.866288 0 0 0 1 0"/>
<feBlend mode="normal" in2="BackgroundImageFix" result="effect1_dropShadow"/>
<feBlend mode="normal" in="SourceGraphic" in2="effect1_dropShadow" result="shape"/>
</filter>
<filter id="filter9_d" x="617" y="107.007" width="4" height="201" filterUnits="userSpaceOnUse" color-interpolation-filters="sRGB">
<feFlood flood-opacity="0" result="BackgroundImageFix"/>
<feColorMatrix in="SourceAlpha" type="matrix" values="0 0 0 0 0 0 0 0 0 0 0 0 0 0 0 0 0 0 127 0"/>
<feOffset dx="-1"/>
<feColorMatrix type="matrix" values="0 0 0 0 0.991667 0 0 0 0 0.915544 0 0 0 0 0.866288 0 0 0 1 0"/>
<feBlend mode="normal" in2="BackgroundImageFix" result="effect1_dropShadow"/>
<feBlend mode="normal" in="SourceGraphic" in2="effect1_dropShadow" result="shape"/>
</filter>
<filter id="filter10_d" x="683" y="107.007" width="4" height="201" filterUnits="userSpaceOnUse" color-interpolation-filters="sRGB">
<feFlood flood-opacity="0" result="BackgroundImageFix"/>
<feColorMatrix in="SourceAlpha" type="matrix" values="0 0 0 0 0 0 0 0 0 0 0 0 0 0 0 0 0 0 127 0"/>
<feOffset dx="-1"/>
<feColorMatrix type="matrix" values="0 0 0 0 0.991667 0 0 0 0 0.915544 0 0 0 0 0.866288 0 0 0 1 0"/>
<feBlend mode="normal" in2="BackgroundImageFix" result="effect1_dropShadow"/>
<feBlend mode="normal" in="SourceGraphic" in2="effect1_dropShadow" result="shape"/>
</filter>
<filter id="filter11_d" x="639" y="107.007" width="4" height="201" filterUnits="userSpaceOnUse" color-interpolation-filters="sRGB">
<feFlood flood-opacity="0" result="BackgroundImageFix"/>
<feColorMatrix in="SourceAlpha" type="matrix" values="0 0 0 0 0 0 0 0 0 0 0 0 0 0 0 0 0 0 127 0"/>
<feOffset dx="-1"/>
<feColorMatrix type="matrix" values="0 0 0 0 0.991667 0 0 0 0 0.915544 0 0 0 0 0.866288 0 0 0 1 0"/>
<feBlend mode="normal" in2="BackgroundImageFix" result="effect1_dropShadow"/>
<feBlend mode="normal" in="SourceGraphic" in2="effect1_dropShadow" result="shape"/>
</filter>
<filter id="filter12_d" x="650" y="107.007" width="4" height="201" filterUnits="userSpaceOnUse" color-interpolation-filters="sRGB">
<feFlood flood-opacity="0" result="BackgroundImageFix"/>
<feColorMatrix in="SourceAlpha" type="matrix" values="0 0 0 0 0 0 0 0 0 0 0 0 0 0 0 0 0 0 127 0"/>
<feOffset dx="-1"/>
<feColorMatrix type="matrix" values="0 0 0 0 0.991667 0 0 0 0 0.915544 0 0 0 0 0.866288 0 0 0 1 0"/>
<feBlend mode="normal" in2="BackgroundImageFix" result="effect1_dropShadow"/>
<feBlend mode="normal" in="SourceGraphic" in2="effect1_dropShadow" result="shape"/>
</filter>
<filter id="filter13_d" x="661" y="107.007" width="4" height="201" filterUnits="userSpaceOnUse" color-interpolation-filters="sRGB">
<feFlood flood-opacity="0" result="BackgroundImageFix"/>
<feColorMatrix in="SourceAlpha" type="matrix" values="0 0 0 0 0 0 0 0 0 0 0 0 0 0 0 0 0 0 127 0"/>
<feOffset dx="-1"/>
<feColorMatrix type="matrix" values="0 0 0 0 0.991667 0 0 0 0 0.915544 0 0 0 0 0.866288 0 0 0 1 0"/>
<feBlend mode="normal" in2="BackgroundImageFix" result="effect1_dropShadow"/>
<feBlend mode="normal" in="SourceGraphic" in2="effect1_dropShadow" result="shape"/>
</filter>
<filter id="filter14_d" x="672" y="107.007" width="4" height="201" filterUnits="userSpaceOnUse" color-interpolation-filters="sRGB">
<feFlood flood-opacity="0" result="BackgroundImageFix"/>
<feColorMatrix in="SourceAlpha" type="matrix" values="0 0 0 0 0 0 0 0 0 0 0 0 0 0 0 0 0 0 127 0"/>
<feOffset dx="-1"/>
<feColorMatrix type="matrix" values="0 0 0 0 0.991667 0 0 0 0 0.915544 0 0 0 0 0.866288 0 0 0 1 0"/>
<feBlend mode="normal" in2="BackgroundImageFix" result="effect1_dropShadow"/>
<feBlend mode="normal" in="SourceGraphic" in2="effect1_dropShadow" result="shape"/>
</filter>
<filter id="filter15_d" x="738" y="107.007" width="4" height="195" filterUnits="userSpaceOnUse" color-interpolation-filters="sRGB">
<feFlood flood-opacity="0" result="BackgroundImageFix"/>
<feColorMatrix in="SourceAlpha" type="matrix" values="0 0 0 0 0 0 0 0 0 0 0 0 0 0 0 0 0 0 127 0"/>
<feOffset dx="-1"/>
<feColorMatrix type="matrix" values="0 0 0 0 0.991667 0 0 0 0 0.915544 0 0 0 0 0.866288 0 0 0 1 0"/>
<feBlend mode="normal" in2="BackgroundImageFix" result="effect1_dropShadow"/>
<feBlend mode="normal" in="SourceGraphic" in2="effect1_dropShadow" result="shape"/>
</filter>
<filter id="filter16_d" x="694" y="107.007" width="4" height="201" filterUnits="userSpaceOnUse" color-interpolation-filters="sRGB">
<feFlood flood-opacity="0" result="BackgroundImageFix"/>
<feColorMatrix in="SourceAlpha" type="matrix" values="0 0 0 0 0 0 0 0 0 0 0 0 0 0 0 0 0 0 127 0"/>
<feOffset dx="-1"/>
<feColorMatrix type="matrix" values="0 0 0 0 0.991667 0 0 0 0 0.915544 0 0 0 0 0.866288 0 0 0 1 0"/>
<feBlend mode="normal" in2="BackgroundImageFix" result="effect1_dropShadow"/>
<feBlend mode="normal" in="SourceGraphic" in2="effect1_dropShadow" result="shape"/>
</filter>
<filter id="filter17_d" x="705" y="107.007" width="4" height="201" filterUnits="userSpaceOnUse" color-interpolation-filters="sRGB">
<feFlood flood-opacity="0" result="BackgroundImageFix"/>
<feColorMatrix in="SourceAlpha" type="matrix" values="0 0 0 0 0 0 0 0 0 0 0 0 0 0 0 0 0 0 127 0"/>
<feOffset dx="-1"/>
<feColorMatrix type="matrix" values="0 0 0 0 0.991667 0 0 0 0 0.915544 0 0 0 0 0.866288 0 0 0 1 0"/>
<feBlend mode="normal" in2="BackgroundImageFix" result="effect1_dropShadow"/>
<feBlend mode="normal" in="SourceGraphic" in2="effect1_dropShadow" result="shape"/>
</filter>
<filter id="filter18_d" x="716" y="107.007" width="4" height="201" filterUnits="userSpaceOnUse" color-interpolation-filters="sRGB">
<feFlood flood-opacity="0" result="BackgroundImageFix"/>
<feColorMatrix in="SourceAlpha" type="matrix" values="0 0 0 0 0 0 0 0 0 0 0 0 0 0 0 0 0 0 127 0"/>
<feOffset dx="-1"/>
<feColorMatrix type="matrix" values="0 0 0 0 0.991667 0 0 0 0 0.915544 0 0 0 0 0.866288 0 0 0 1 0"/>
<feBlend mode="normal" in2="BackgroundImageFix" result="effect1_dropShadow"/>
<feBlend mode="normal" in="SourceGraphic" in2="effect1_dropShadow" result="shape"/>
</filter>
<filter id="filter19_d" x="727" y="107.007" width="4" height="195" filterUnits="userSpaceOnUse" color-interpolation-filters="sRGB">
<feFlood flood-opacity="0" result="BackgroundImageFix"/>
<feColorMatrix in="SourceAlpha" type="matrix" values="0 0 0 0 0 0 0 0 0 0 0 0 0 0 0 0 0 0 127 0"/>
<feOffset dx="-1"/>
<feColorMatrix type="matrix" values="0 0 0 0 0.991667 0 0 0 0 0.915544 0 0 0 0 0.866288 0 0 0 1 0"/>
<feBlend mode="normal" in2="BackgroundImageFix" result="effect1_dropShadow"/>
<feBlend mode="normal" in="SourceGraphic" in2="effect1_dropShadow" result="shape"/>
</filter>
<filter id="filter20_d" x="793" y="107.007" width="4" height="195" filterUnits="userSpaceOnUse" color-interpolation-filters="sRGB">
<feFlood flood-opacity="0" result="BackgroundImageFix"/>
<feColorMatrix in="SourceAlpha" type="matrix" values="0 0 0 0 0 0 0 0 0 0 0 0 0 0 0 0 0 0 127 0"/>
<feOffset dx="-1"/>
<feColorMatrix type="matrix" values="0 0 0 0 0.991667 0 0 0 0 0.915544 0 0 0 0 0.866288 0 0 0 1 0"/>
<feBlend mode="normal" in2="BackgroundImageFix" result="effect1_dropShadow"/>
<feBlend mode="normal" in="SourceGraphic" in2="effect1_dropShadow" result="shape"/>
</filter>
<filter id="filter21_d" x="749" y="107.007" width="4" height="195" filterUnits="userSpaceOnUse" color-interpolation-filters="sRGB">
<feFlood flood-opacity="0" result="BackgroundImageFix"/>
<feColorMatrix in="SourceAlpha" type="matrix" values="0 0 0 0 0 0 0 0 0 0 0 0 0 0 0 0 0 0 127 0"/>
<feOffset dx="-1"/>
<feColorMatrix type="matrix" values="0 0 0 0 0.991667 0 0 0 0 0.915544 0 0 0 0 0.866288 0 0 0 1 0"/>
<feBlend mode="normal" in2="BackgroundImageFix" result="effect1_dropShadow"/>
<feBlend mode="normal" in="SourceGraphic" in2="effect1_dropShadow" result="shape"/>
</filter>
<filter id="filter22_d" x="760" y="107.007" width="4" height="195" filterUnits="userSpaceOnUse" color-interpolation-filters="sRGB">
<feFlood flood-opacity="0" result="BackgroundImageFix"/>
<feColorMatrix in="SourceAlpha" type="matrix" values="0 0 0 0 0 0 0 0 0 0 0 0 0 0 0 0 0 0 127 0"/>
<feOffset dx="-1"/>
<feColorMatrix type="matrix" values="0 0 0 0 0.991667 0 0 0 0 0.915544 0 0 0 0 0.866288 0 0 0 1 0"/>
<feBlend mode="normal" in2="BackgroundImageFix" result="effect1_dropShadow"/>
<feBlend mode="normal" in="SourceGraphic" in2="effect1_dropShadow" result="shape"/>
</filter>
<filter id="filter23_d" x="771" y="107.007" width="4" height="195" filterUnits="userSpaceOnUse" color-interpolation-filters="sRGB">
<feFlood flood-opacity="0" result="BackgroundImageFix"/>
<feColorMatrix in="SourceAlpha" type="matrix" values="0 0 0 0 0 0 0 0 0 0 0 0 0 0 0 0 0 0 127 0"/>
<feOffset dx="-1"/>
<feColorMatrix type="matrix" values="0 0 0 0 0.991667 0 0 0 0 0.915544 0 0 0 0 0.866288 0 0 0 1 0"/>
<feBlend mode="normal" in2="BackgroundImageFix" result="effect1_dropShadow"/>
<feBlend mode="normal" in="SourceGraphic" in2="effect1_dropShadow" result="shape"/>
</filter>
<filter id="filter24_d" x="782" y="107.007" width="4" height="195" filterUnits="userSpaceOnUse" color-interpolation-filters="sRGB">
<feFlood flood-opacity="0" result="BackgroundImageFix"/>
<feColorMatrix in="SourceAlpha" type="matrix" values="0 0 0 0 0 0 0 0 0 0 0 0 0 0 0 0 0 0 127 0"/>
<feOffset dx="-1"/>
<feColorMatrix type="matrix" values="0 0 0 0 0.991667 0 0 0 0 0.915544 0 0 0 0 0.866288 0 0 0 1 0"/>
<feBlend mode="normal" in2="BackgroundImageFix" result="effect1_dropShadow"/>
<feBlend mode="normal" in="SourceGraphic" in2="effect1_dropShadow" result="shape"/>
</filter>
<filter id="filter25_d" x="804" y="107.007" width="4" height="195" filterUnits="userSpaceOnUse" color-interpolation-filters="sRGB">
<feFlood flood-opacity="0" result="BackgroundImageFix"/>
<feColorMatrix in="SourceAlpha" type="matrix" values="0 0 0 0 0 0 0 0 0 0 0 0 0 0 0 0 0 0 127 0"/>
<feOffset dx="-1"/>
<feColorMatrix type="matrix" values="0 0 0 0 0.991667 0 0 0 0 0.915544 0 0 0 0 0.866288 0 0 0 1 0"/>
<feBlend mode="normal" in2="BackgroundImageFix" result="effect1_dropShadow"/>
<feBlend mode="normal" in="SourceGraphic" in2="effect1_dropShadow" result="shape"/>
</filter>
</defs>
</svg>
