<svg width="32" height="32" viewBox="0 0 32 32" fill="none" xmlns="http://www.w3.org/2000/svg">
<path fill-rule="evenodd" clip-rule="evenodd" d="M16 0C7.16344 0 0 7.16344 0 16C0 24.8366 7.16344 32 16 32C24.8366 32 32 24.8366 32 16C32 7.16344 24.8366 0 16 0ZM7.68096 13.2517H11.3069V24.1462H7.68096V13.2517ZM11.5458 9.88159C11.5223 8.81339 10.7584 7.99979 9.51797 7.99979C8.27756 7.99979 7.46662 8.81339 7.46662 9.88159C7.46662 10.9277 8.25359 11.7647 9.4709 11.7647H9.49408C10.7584 11.7647 11.5458 10.9277 11.5458 9.88159ZM20.2086 12.9963C22.5946 12.9963 24.3834 14.5537 24.3834 17.9L24.3833 24.1466H20.7575V18.318C20.7575 16.854 20.2328 15.855 18.9202 15.855C17.9184 15.855 17.3217 16.5285 17.0597 17.179C16.9638 17.4121 16.9403 17.7369 16.9403 18.0625V24.1469H13.3139C13.3139 24.1469 13.3617 14.2747 13.3139 13.2524H16.9403V14.7955C17.4215 14.0537 18.2834 12.9963 20.2086 12.9963Z" fill="white"/>
</svg>
