<svg width="64" height="64" viewBox="0 0 64 64" fill="none" xmlns="http://www.w3.org/2000/svg">
<path d="M42 12C41.7891 12 41.6573 11.9904 41.5719 11.9737C41.5535 11.9701 41.5396 11.9666 41.5294 11.9636C41.5276 11.957 41.5256 11.9488 41.5236 11.9389C41.5086 11.8648 41.5 11.7481 41.5 11.5539V6C41.5 5.78845 41.4247 5.59322 41.3426 5.44188C41.2569 5.28392 41.1422 5.13434 41.0159 5.0052C40.8897 4.87613 40.7405 4.75599 40.5785 4.6654C40.4212 4.57742 40.2205 4.5 40 4.5H23C22.7795 4.5 22.5788 4.57742 22.4214 4.6654C22.2594 4.75599 22.1103 4.87613 21.9841 5.0052C21.8578 5.13434 21.7431 5.28392 21.6574 5.44189C21.5752 5.59322 21.5 5.78845 21.5 6V11.5539C21.5 11.748 21.4914 11.8647 21.4763 11.9388C21.4743 11.9487 21.4723 11.9569 21.4706 11.9636C21.4603 11.9666 21.4463 11.9701 21.4279 11.9737C21.3426 11.9904 21.2108 12 21 12C20.7891 12 20.6573 11.9904 20.5719 11.9737C20.5535 11.9701 20.5396 11.9666 20.5294 11.9636C20.5276 11.957 20.5256 11.9488 20.5236 11.9389C20.5086 11.8648 20.5 11.7481 20.5 11.5539V6.59498C20.5 4.92905 21.9941 3.5 23.9235 3.5H39.0765C41.0059 3.5 42.5 4.92905 42.5 6.59498V11.5539C42.5 11.7481 42.4914 11.8648 42.4764 11.9389C42.4743 11.9488 42.4724 11.957 42.4706 11.9636C42.4604 11.9666 42.4465 11.9701 42.4281 11.9737C42.3427 11.9904 42.2109 12 42 12ZM41.5375 11.9882C41.5375 11.9882 41.5374 11.9879 41.537 11.9872L41.5375 11.9882ZM21.4624 11.9881C21.4624 11.988 21.4625 11.9877 21.4629 11.987L21.4624 11.9881ZM21.4939 11.9553C21.4945 11.9549 21.4948 11.9548 21.4948 11.9548L21.4939 11.9553ZM20.5376 11.9882C20.5375 11.9882 20.5374 11.9879 20.537 11.9872L20.5376 11.9882ZM42.4624 11.9882C42.4624 11.9882 42.4626 11.9878 42.463 11.9872L42.4624 11.9882Z" fill="#3D6889" stroke="#1C4B7A" stroke-width="0.999998"/>
<path d="M63 14.1415V54.551C63 55.3971 62.8872 56.2112 62.6802 56.9777C61.7198 60.5145 58.7566 63 55.3483 63H8.65104C4.50627 63 1 59.3011 1 54.551V14.1415C1 12.8734 1.92071 12 2.87646 12H61.1242C62.0792 12 63 12.8732 63 14.1415Z" fill="white" stroke="#1C4B7A" stroke-width="2"/>
<path d="M63 13.8559V22.4253C63 24.5981 62.4133 26.6265 61.3959 28.3567C59.4302 31.6937 55.8697 33.9091 51.814 33.9091H12.186C6.03029 33.9091 1 28.7916 1 22.4253V13.8559C1 12.7575 1.86252 11.9091 2.87707 11.9091H61.1236C62.1378 11.9091 63 12.7572 63 13.8559Z" fill="#7EB8C4" stroke="#1C4B7A" stroke-width="2"/>
<path d="M52.4079 40.7273H48.6824C47.9032 40.7273 47.2727 40.0393 47.2727 39.1908V29.1729C47.2727 28.3243 47.9032 27.6364 48.6824 27.6364H52.4085C53.187 27.6364 53.8182 28.3243 53.8182 29.1729V39.1908C53.8176 40.0393 53.1864 40.7273 52.4079 40.7273Z" fill="#7EB8C4"/>
<path d="M53.8182 29.3323V34.7684C53.268 34.8612 52.704 34.9091 52.1311 34.9091H47.2727V29.3323C47.2727 28.3965 47.9051 27.6364 48.6835 27.6364H52.4074C53.1884 27.6364 53.8182 28.3965 53.8182 29.3323Z" fill="#1C4B7A"/>
<path d="M15.3176 40.7273H11.5915C10.813 40.7273 10.1818 40.0393 10.1818 39.1908V29.1729C10.1818 28.3243 10.813 27.6364 11.5915 27.6364H15.3176C16.0961 27.6364 16.7273 28.3243 16.7273 29.1729V39.1908C16.7273 40.0393 16.0961 40.7273 15.3176 40.7273Z" fill="#7EB8C4"/>
<path d="M16.7273 29.3323V34.7684C16.1771 34.8612 15.6131 34.9091 15.0402 34.9091H10.1818V29.3323C10.1818 28.3965 10.8142 27.6364 11.5926 27.6364H15.3171C16.0975 27.6364 16.7273 28.3965 16.7273 29.3323Z" fill="#1C4B7A"/>
</svg>
