<svg width="64" height="64" viewBox="0 0 64 64" fill="none" xmlns="http://www.w3.org/2000/svg">
<path d="M22.1538 52.0235C22.1538 53.2992 21.347 54.4354 20.1426 54.8559L4.98876 60.146C3.03865 60.8267 1 59.3791 1 57.3136V11.0149C1 9.73916 1.8068 8.60297 3.01124 8.18251L18.1651 2.89244C20.1152 2.21167 22.1538 3.6593 22.1538 5.72482V52.0235Z" fill="#7EB8C4"/>
<path d="M62.0002 50.5453C62.0002 51.2555 61.6235 51.9125 61.0106 52.2713L46.0875 61.0068C44.7542 61.7872 43.0771 60.8257 43.0771 59.2807V13.4541C43.0771 12.7439 43.4538 12.0869 44.0668 11.7281L58.9899 2.99263C60.3232 2.21216 62.0002 3.17373 62.0002 4.71866V50.5453Z" fill="#7EB8C4"/>
<path d="M43.0769 12.3077L22.1538 1.23077V54.1538L43.0769 62.7692V12.3077Z" fill="white"/>
<path d="M61.429 51.7688L61.4211 51.7729L61.4133 51.7772L43.8003 61.4216C43.2614 61.7168 42.6167 61.7478 42.0519 61.5057L23.4692 53.5417C22.5472 53.1465 21.5104 53.1122 20.5643 53.4456L4.12523 59.2375C2.83243 59.6632 1.5 58.7003 1.5 57.3377V10.8547C1.5 9.99588 2.04831 9.23305 2.86207 8.9592C2.86314 8.95884 2.86421 8.95848 2.86528 8.95812L21.6258 2.83711C22.1313 2.67219 22.6816 2.71533 23.1552 2.95699L41.1811 12.1552C42.3808 12.7673 43.8079 12.7347 44.9783 12.0684L59.5576 3.76804C60.8885 3.05659 62.5 4.02061 62.5 5.53211V49.9977C62.5 50.7412 62.0875 51.4234 61.429 51.7688Z" stroke="#1C4B7A" stroke-width="2"/>
<circle cx="32.2222" cy="32.2222" r="13.2222" stroke="#1C4B7A" stroke-width="2"/>
<path d="M49.2929 50.7071C49.6834 51.0976 50.3166 51.0976 50.7071 50.7071C51.0976 50.3166 51.0976 49.6834 50.7071 49.2929L49.2929 50.7071ZM40.9966 42.4108L49.2929 50.7071L50.7071 49.2929L42.4108 40.9966L40.9966 42.4108Z" fill="#1C4B7A"/>
</svg>
