<svg width="32" height="32" viewBox="0 0 32 32" fill="none" xmlns="http://www.w3.org/2000/svg">
<path fill-rule="evenodd" clip-rule="evenodd" d="M16 0C7.16344 0 0 7.16344 0 16C0 24.8366 7.16344 32 16 32C24.8366 32 32 24.8366 32 16C32 7.16344 24.8366 0 16 0ZM15.5544 13.5587L15.5208 13.005C15.4201 11.5701 16.3043 10.2595 17.7032 9.75102C18.218 9.57024 19.091 9.54764 19.6618 9.70582C19.8856 9.77361 20.3109 9.99959 20.613 10.203L21.1614 10.5758L21.7658 10.3837C22.1015 10.2821 22.5492 10.1126 22.7507 9.99959C22.9409 9.8979 23.1088 9.84141 23.1088 9.8753C23.1088 10.0674 22.6947 10.7227 22.3478 11.0843C21.8777 11.5927 22.012 11.6379 22.9633 11.2989C23.5341 11.1069 23.5453 11.1069 23.4333 11.3215C23.3662 11.4345 23.0193 11.83 22.6499 12.1915C22.0232 12.813 21.9896 12.8808 21.9896 13.4005C21.9896 14.2027 21.6091 15.8749 21.2286 16.7901C20.5235 18.5075 19.0126 20.2814 17.5018 21.174C15.3753 22.4282 12.5439 22.7445 10.16 22.0101C9.36542 21.7615 8.00003 21.1288 8.00003 21.0158C8.00003 20.9819 8.41413 20.9367 8.91775 20.9254C9.96977 20.9028 11.0218 20.6091 11.9171 20.0893L12.5215 19.7278L11.8276 19.4905C10.8427 19.1515 9.95858 18.3719 9.73474 17.6375C9.66759 17.4002 9.68998 17.3889 10.3167 17.3889L10.9658 17.3776L10.4174 17.1178C9.76832 16.7901 9.17516 16.2365 8.88418 15.6715C8.67153 15.2648 8.40293 14.2366 8.48128 14.1575C8.50366 14.1236 8.73868 14.1914 9.00728 14.2818C9.77951 14.5643 9.88023 14.4965 9.43257 14.0219C8.59319 13.1632 8.33578 11.8865 8.73868 10.6775L8.92894 10.1352L9.66759 10.8696C11.1785 12.3497 12.9579 13.231 14.9948 13.4909L15.5544 13.5587Z" fill="white"/>
</svg>
